<svg xmlns="http://www.w3.org/2000/svg" width="25" height="20" viewBox="0 0 25 20">
  <path id="Path_5751" data-name="Path 5751" d="M-3.75-7.5a4.958,4.958,0,0,1-2.52-.664A4.864,4.864,0,0,1-8.086-9.98,4.958,4.958,0,0,1-8.75-12.5a4.958,4.958,0,0,1,.664-2.52A4.864,4.864,0,0,1-6.27-16.836,4.958,4.958,0,0,1-3.75-17.5a4.958,4.958,0,0,1,2.52.664A4.864,4.864,0,0,1,.586-15.019,4.958,4.958,0,0,1,1.25-12.5,4.958,4.958,0,0,1,.586-9.98,4.864,4.864,0,0,1-1.23-8.164,4.958,4.958,0,0,1-3.75-7.5ZM-.234-6.25a5.123,5.123,0,0,1,2.617.7A5.191,5.191,0,0,1,4.3-3.633,5.123,5.123,0,0,1,5-1.016V.625a1.808,1.808,0,0,1-.547,1.328A1.808,1.808,0,0,1,3.125,2.5h-13.75a1.808,1.808,0,0,1-1.328-.547A1.808,1.808,0,0,1-12.5.625V-1.016a5.123,5.123,0,0,1,.7-2.617A5.191,5.191,0,0,1-9.883-5.547a5.123,5.123,0,0,1,2.617-.7H-6.6a6.783,6.783,0,0,0,2.852.625A6.783,6.783,0,0,0-.9-6.25Zm12.617-5a.422.422,0,0,1,.117.313.422.422,0,0,1-.117.312L6.836-5.117A.422.422,0,0,1,6.523-5a.486.486,0,0,1-.352-.156l-3.164-3.2a.371.371,0,0,1-.156-.312.486.486,0,0,1,.156-.352L4.1-10.117a.422.422,0,0,1,.313-.117.486.486,0,0,1,.352.156L6.523-8.32l4.1-4.062a.544.544,0,0,1,.332-.117.544.544,0,0,1,.332.117Z" transform="translate(12.5 17.5)" fill="#2c86d9"/>
</svg>
