<svg id="Group_23141" data-name="Group 23141" xmlns="http://www.w3.org/2000/svg" xmlns:xlink="http://www.w3.org/1999/xlink" width="30.061" height="33.414" viewBox="0 0 30.061 33.414">
  <defs>
    <clipPath id="clip-path">
      <rect id="Rectangle_2092" data-name="Rectangle 2092" width="23.667" height="26.133" fill="#5d5a65"/>
    </clipPath>
  </defs>
  <g id="Group_23123" data-name="Group 23123" transform="translate(0 7.281)">
    <g id="Group_9067" data-name="Group 9067" clip-path="url(#clip-path)">
      <path id="Path_4564" data-name="Path 4564" d="M10.962,0h1.377c.072.06.161.043.244.051a9.63,9.63,0,0,1,2.951.741,10.067,10.067,0,0,1,5.9,6.766c.685,2.407,1.348,4.82,2.013,7.233a5.271,5.271,0,0,1,.164,2.27,5.351,5.351,0,0,1-3.158,4.212,6.1,6.1,0,0,1-2.858.494c-.22-.008-.3.064-.354.275a5.414,5.414,0,0,1-6.261,3.98,5.322,5.322,0,0,1-4.269-4.04c-.044-.158-.1-.218-.271-.215a14.366,14.366,0,0,1-1.452-.03A5.192,5.192,0,0,1,1.6,20.161,5.293,5.293,0,0,1,.14,15.122c.492-2.307,1.034-4.6,1.529-6.91A10.244,10.244,0,0,1,4.98,2.5,10,10,0,0,1,9.062.341,15.192,15.192,0,0,1,10.962,0m.864,19.588c2.107,0,4.215,0,6.323,0a3.4,3.4,0,0,0,1.317-.246,3.276,3.276,0,0,0,1.87-4.016q-1-3.618-2.01-7.234a7.625,7.625,0,0,0-2.308-3.8A7.706,7.706,0,0,0,8.789,2.72,7.681,7.681,0,0,0,3.825,8.55c-.486,2.109-.944,4.224-1.414,6.336a5.224,5.224,0,0,0-.2,1.887A3.33,3.33,0,0,0,5.554,19.6c2.09-.033,4.181-.008,6.271-.008M8.945,21.772a1.437,1.437,0,0,0,.038.144,3.337,3.337,0,0,0,2.776,2.017,3.3,3.3,0,0,0,3.155-1.866c.131-.295.132-.294-.2-.294H8.945" transform="translate(0 0.001)" fill="#5d5a65"/>
    </g>
  </g>
  <path id="Path_5052" data-name="Path 5052" d="M9.2,0A9.2,9.2,0,1,1,0,9.2,9.2,9.2,0,0,1,9.2,0Z" transform="translate(11.668)" fill="#126ad4"/>
</svg>
