<svg xmlns="http://www.w3.org/2000/svg" xmlns:xlink="http://www.w3.org/1999/xlink" width="231.658" height="260.487" viewBox="0 0 231.658 260.487">
  <defs>
    <clipPath id="clip-path">
      <rect id="Rectangle_4234" data-name="Rectangle 4234" width="215.078" height="203.681" fill="none"/>
    </clipPath>
    <clipPath id="clip-path-2">
      <path id="Path_5314" data-name="Path 5314" d="M801.224,451.083v51.765a7.66,7.66,0,0,0,7.66,7.66h85.081a7.66,7.66,0,0,0,7.66-7.66V451.083Z" transform="translate(-801.224 -451.083)" fill="none"/>
    </clipPath>
    <clipPath id="clip-path-3">
      <rect id="Rectangle_4235" data-name="Rectangle 4235" width="108.004" height="60.19" fill="none"/>
    </clipPath>
    <clipPath id="clip-path-4">
      <rect id="Rectangle_4236" data-name="Rectangle 4236" width="84.468" height="71.242" fill="none"/>
    </clipPath>
    <clipPath id="clip-path-5">
      <rect id="Rectangle_4237" data-name="Rectangle 4237" width="14.146" height="14.062" fill="none"/>
    </clipPath>
    <clipPath id="clip-path-7">
      <rect id="Rectangle_4246" data-name="Rectangle 4246" width="25.242" height="23.942" fill="none"/>
    </clipPath>
    <clipPath id="clip-path-8">
      <rect id="Rectangle_4248" data-name="Rectangle 4248" width="3.132" height="3.132" fill="none"/>
    </clipPath>
    <clipPath id="clip-path-9">
      <rect id="Rectangle_4249" data-name="Rectangle 4249" width="0.987" height="2.49" fill="none"/>
    </clipPath>
    <clipPath id="clip-path-10">
      <rect id="Rectangle_4250" data-name="Rectangle 4250" width="6.794" height="5.587" fill="none"/>
    </clipPath>
  </defs>
  <g id="Group_23329" data-name="Group 23329" transform="translate(-739.982 -360.449)">
    <path id="Path_6357" data-name="Path 6357" d="M25.116-25.576a3.352,3.352,0,0,0-.046.552v.552a3.382,3.382,0,0,0,.345,1.61,2.951,2.951,0,0,0,.9,1.035,3.494,3.494,0,0,0,1.265.552,6.558,6.558,0,0,0,1.449.161,5.8,5.8,0,0,0,2.53-.621,8.34,8.34,0,0,0,2.346-1.7,9.008,9.008,0,0,0,1.725-2.507,6.975,6.975,0,0,0,.667-2.99,2.84,2.84,0,0,0-1.058-2.6,5.3,5.3,0,0,0-2.852-.667,12.416,12.416,0,0,0-4.554.989,25.963,25.963,0,0,0-5.037,2.737,33.9,33.9,0,0,0-4.922,4.14,34.443,34.443,0,0,0-4.232,5.2,27.2,27.2,0,0,0-2.967,5.888,18.428,18.428,0,0,0-1.1,6.256A10.586,10.586,0,0,0,9.89-4.416,7.375,7.375,0,0,0,10.9-2.093,5.168,5.168,0,0,0,12.7-.437a5.364,5.364,0,0,0,2.668.621,9.409,9.409,0,0,0,4.3-1.035,12.666,12.666,0,0,0,3.588-2.691,13.565,13.565,0,0,0,2.461-3.7,9.866,9.866,0,0,0,.92-4.071,3.567,3.567,0,0,0-1.081-2.806,4.223,4.223,0,0,0-2.921-.966l-.046-.552a6.7,6.7,0,0,1,4.3,1.15q1.4,1.15,1.4,3.91a9.192,9.192,0,0,1-.851,3.588,12.46,12.46,0,0,1-2.507,3.7A13.625,13.625,0,0,1,20.815-.414,13.166,13.166,0,0,1,15.18.736a8.837,8.837,0,0,1-4.025-.828A8.037,8.037,0,0,1,8.51-2.162,7.8,7.8,0,0,1,7.061-4.853a9.36,9.36,0,0,1-.437-2.691,15.441,15.441,0,0,1,1.242-5.911,27.925,27.925,0,0,1,3.289-5.819,36.148,36.148,0,0,1,4.715-5.267,40.019,40.019,0,0,1,5.5-4.278,29.826,29.826,0,0,1,5.658-2.875A14.9,14.9,0,0,1,32.2-32.752a6.614,6.614,0,0,1,4.324,1.2,4.3,4.3,0,0,1,1.426,3.5,6.1,6.1,0,0,1-.759,2.99A7.68,7.68,0,0,1,35.167-22.7a10.2,10.2,0,0,1-2.875,1.564,9.776,9.776,0,0,1-3.312.575,5.463,5.463,0,0,1-3.082-.851,3.433,3.433,0,0,1-1.38-2.921v-.6a3.963,3.963,0,0,1,.046-.644Zm31.74,13.938A8.948,8.948,0,0,1,54.372-9.66a5.739,5.739,0,0,1-2.714.736A4.082,4.082,0,0,1,49.45-9.5a4.5,4.5,0,0,1-1.426-1.357h-.092a13.646,13.646,0,0,1-1.7,3.726A19.118,19.118,0,0,1,43.263-3.5a17.036,17.036,0,0,1-3.8,2.76,8.9,8.9,0,0,1-4.232,1.1,3.772,3.772,0,0,1-2.99-1.15,4.5,4.5,0,0,1-1.012-3.082A6.751,6.751,0,0,1,31.74-6.21a13.729,13.729,0,0,1,1.4-2.691,20.666,20.666,0,0,1,2.116-2.668A18.22,18.22,0,0,1,37.9-13.915a13.475,13.475,0,0,1,3.013-1.656,8.712,8.712,0,0,1,3.2-.621,3.809,3.809,0,0,1,2.921,1.1,4.355,4.355,0,0,1,1.127,2.852,3.126,3.126,0,0,0,.989,1.955,3.326,3.326,0,0,0,2.461.9,5.193,5.193,0,0,0,2.6-.69,9.938,9.938,0,0,0,2.277-1.794ZM33.718-2.76a3.364,3.364,0,0,0,.46,1.886,1.548,1.548,0,0,0,1.38.69,5.08,5.08,0,0,0,2.461-.667A11.1,11.1,0,0,0,40.365-2.6,16.53,16.53,0,0,0,42.458-5.06a20.721,20.721,0,0,0,1.679-2.852,18.848,18.848,0,0,0,1.127-2.875,9.1,9.1,0,0,0,.414-2.553,2.71,2.71,0,0,0-.483-1.633,1.722,1.722,0,0,0-1.5-.667,4.255,4.255,0,0,0-2.07.621A12.671,12.671,0,0,0,39.4-13.386,16.718,16.718,0,0,0,37.26-11.04a24.457,24.457,0,0,0-1.817,2.76,15.465,15.465,0,0,0-1.265,2.852A8.717,8.717,0,0,0,33.718-2.76ZM48.438,0q1.012-1.7,2.323-3.726l2.668-4.117q1.357-2.093,2.668-4.14t2.369-3.841h2.806L55.2-7.268l.092.092q.874-1.058,2.116-2.6a30.9,30.9,0,0,1,2.737-2.967,17.829,17.829,0,0,1,3.2-2.438,6.759,6.759,0,0,1,3.5-1.012,2.8,2.8,0,0,1,1.817.575,2.03,2.03,0,0,1,.713,1.679,3.65,3.65,0,0,1-.46,1.564,18.168,18.168,0,0,1-1.081,1.863q-.621.943-1.265,1.817T65.55-7.268l.092.092a36.368,36.368,0,0,1,2.323-2.944,30.66,30.66,0,0,1,2.9-2.921A17.734,17.734,0,0,1,74.037-15.3a6.542,6.542,0,0,1,3.151-.9,2.778,2.778,0,0,1,2,.644,2.377,2.377,0,0,1,.667,1.794,4.247,4.247,0,0,1-.529,1.84,18.976,18.976,0,0,1-1.334,2.231q-.805,1.173-1.725,2.369t-1.725,2.3a20.773,20.773,0,0,0-1.334,2.047A3.426,3.426,0,0,0,72.68-1.38a1.138,1.138,0,0,0,.345.874,1.2,1.2,0,0,0,.851.322,5.357,5.357,0,0,0,2.6-.874A19.774,19.774,0,0,0,79.695-3.5a42.943,42.943,0,0,0,3.611-3.749q1.886-2.185,3.818-4.807l.368.184Q85.606-9.292,83.72-7.061a45.84,45.84,0,0,1-3.657,3.887,18.974,18.974,0,0,1-3.4,2.6,6.108,6.108,0,0,1-3.013.943A2.636,2.636,0,0,1,71.53-.437a2.967,2.967,0,0,1-.69-2,4.519,4.519,0,0,1,.529-1.955A16.768,16.768,0,0,1,72.7-6.624q.8-1.15,1.725-2.3t1.725-2.208a22.4,22.4,0,0,0,1.334-1.932,2.986,2.986,0,0,0,.529-1.426,1.043,1.043,0,0,0-.345-.9,1.4,1.4,0,0,0-.851-.253,4.988,4.988,0,0,0-2.162.621,13.785,13.785,0,0,0-2.6,1.748,33.121,33.121,0,0,0-2.783,2.622q-1.426,1.5-2.783,3.22A41.551,41.551,0,0,0,63.94-3.8,34.413,34.413,0,0,0,61.87,0H58.926q1.288-2.3,2.783-4.6t2.783-4.255q1.288-1.955,2.162-3.4a4.931,4.931,0,0,0,.874-2.139q0-1.242-1.288-1.242a5.144,5.144,0,0,0-2.576.851,17.724,17.724,0,0,0-2.9,2.208,31.343,31.343,0,0,0-2.9,3.082q-1.426,1.725-2.691,3.473T52.946-2.691Q51.98-1.1,51.428,0ZM92.46-15.824q-2.53,3.634-4.278,6.118t-2.829,4.14a28.5,28.5,0,0,0-1.564,2.622,3.756,3.756,0,0,0-.483,1.564q0,1.2.966,1.2a4.6,4.6,0,0,0,2.139-.667,18.27,18.27,0,0,0,2.553-1.725,31.246,31.246,0,0,0,2.668-2.392Q92.966-6.3,94.139-7.613t2.07-2.53a17.112,17.112,0,0,0,1.311-2l.368.23q-.552.92-1.495,2.208T94.254-7.061q-1.2,1.357-2.53,2.691A27.574,27.574,0,0,1,89.01-1.978a16.2,16.2,0,0,1-2.691,1.7A5.533,5.533,0,0,1,83.9.368a2.306,2.306,0,0,1-1.84-.69,2.267,2.267,0,0,1-.6-1.518A5.469,5.469,0,0,1,81.9-3.887a18.394,18.394,0,0,1,1.4-2.645q.966-1.564,2.507-3.795t3.7-5.5Zm2.668-8.556a1.393,1.393,0,0,1,1.058.437,1.511,1.511,0,0,1,.414,1.081,1.511,1.511,0,0,1-.414,1.081,1.393,1.393,0,0,1-1.058.437,1.393,1.393,0,0,1-1.058-.437,1.511,1.511,0,0,1-.414-1.081,1.511,1.511,0,0,1,.414-1.081A1.393,1.393,0,0,1,95.128-24.38Zm6.992,8.556L96.048-7.406l.092.092q.966-1.15,2.254-2.691a33.082,33.082,0,0,1,2.76-2.921,17.709,17.709,0,0,1,3.059-2.323,6.132,6.132,0,0,1,3.151-.943,2.892,2.892,0,0,1,2.139.759,2.646,2.646,0,0,1,.759,1.955,3.915,3.915,0,0,1-.529,1.748,22.042,22.042,0,0,1-1.311,2.162q-.782,1.15-1.7,2.346t-1.7,2.277q-.782,1.081-1.311,1.978a3.138,3.138,0,0,0-.529,1.495,1.138,1.138,0,0,0,1.288,1.288,6.144,6.144,0,0,0,3.128-.989,21.212,21.212,0,0,0,3.956-3.335q.92-.92,1.863-2.024t1.817-2.185q.874-1.081,1.587-2.047t1.127-1.61l.322.184q-.92,1.38-2.369,3.289t-3.151,3.749q-1.012,1.1-2.07,2.116a19.629,19.629,0,0,1-2.116,1.771,10.854,10.854,0,0,1-2.093,1.2,5.233,5.233,0,0,1-2.047.437,3.31,3.31,0,0,1-2.208-.736,2.5,2.5,0,0,1-.874-2.024,5.493,5.493,0,0,1,1.1-3.013q1.1-1.633,2.438-3.289t2.438-3.174a4.771,4.771,0,0,0,1.1-2.668.969.969,0,0,0-.368-.828,1.569,1.569,0,0,0-.966-.276,5.144,5.144,0,0,0-2.576.851,17.238,17.238,0,0,0-2.921,2.254A42.076,42.076,0,0,0,98.6-9.407q-1.495,1.725-2.783,3.45t-2.3,3.312A26.153,26.153,0,0,0,92,0H89.148q1.2-2.024,2.553-4.117t2.691-4.14q1.334-2.047,2.553-3.956t2.185-3.473Zm31.418,0q-2.76,3.726-5.221,7.59T123.234-.552a18.586,18.586,0,0,0,4.531-1.656,24.265,24.265,0,0,0,4.209-2.76,29.555,29.555,0,0,0,3.657-3.542,25.6,25.6,0,0,0,2.829-3.91l.184.276a26.135,26.135,0,0,1-4.439,5.75,28.351,28.351,0,0,1-4.669,3.68,21.306,21.306,0,0,1-4.048,2A14.275,14.275,0,0,1,122.912,0a5.18,5.18,0,0,0-.92,1.2q-.69,1.058-1.84,2.576a41.687,41.687,0,0,1-2.737,3.22,24.662,24.662,0,0,1-3.588,3.151,20.242,20.242,0,0,1-4.439,2.415,14.106,14.106,0,0,1-5.244.966,12.306,12.306,0,0,1-3.082-.368A8.01,8.01,0,0,1,98.6,12.1a5.169,5.169,0,0,1-1.61-1.656,4.146,4.146,0,0,1-.575-2.162,4.28,4.28,0,0,1,1.426-3.289,5.295,5.295,0,0,1,4.968-1.127v.368h-.368a3.165,3.165,0,0,0-2.668,1.127A4.788,4.788,0,0,0,98.9,8.372a4.691,4.691,0,0,0,.437,2.116,3.874,3.874,0,0,0,1.2,1.426,5.064,5.064,0,0,0,1.771.8,9.158,9.158,0,0,0,6.187-.69,17.28,17.28,0,0,0,3.749-2.484,30.621,30.621,0,0,0,3.427-3.473q1.633-1.932,3.082-3.887t2.645-3.772q1.2-1.817,2.116-3.1l-.092-.092q-.736.874-1.633,1.771a17.8,17.8,0,0,1-1.909,1.656A10.61,10.61,0,0,1,117.76-.115a5.679,5.679,0,0,1-2.3.483,3.356,3.356,0,0,1-1.518-.322,3.055,3.055,0,0,1-1.058-.851,3.4,3.4,0,0,1-.6-1.173A4.515,4.515,0,0,1,112.1-3.22a7.753,7.753,0,0,1,.621-2.944,15.3,15.3,0,0,1,1.633-2.967,17.725,17.725,0,0,1,2.346-2.714,20.876,20.876,0,0,1,2.783-2.231,15.33,15.33,0,0,1,2.921-1.541,7.511,7.511,0,0,1,2.714-.575,3.335,3.335,0,0,1,2.6.9,3.035,3.035,0,0,1,.805,2.093h.138l1.7-2.622Zm-8.51.184a5.781,5.781,0,0,0-3.289,1.265,17.235,17.235,0,0,0-3.312,3.151,18.873,18.873,0,0,0-2.553,4.094,9.979,9.979,0,0,0-1.012,4.14,2.432,2.432,0,0,0,.529,1.633,1.7,1.7,0,0,0,1.357.621,3.962,3.962,0,0,0,1.679-.529,11.773,11.773,0,0,0,2.162-1.472,23.372,23.372,0,0,0,2.277-2.208,19.164,19.164,0,0,0,2.047-2.691,16.2,16.2,0,0,0,1.472-2.967,8.7,8.7,0,0,0,.575-3.059,2.277,2.277,0,0,0-.437-1.38A1.73,1.73,0,0,0,125.028-15.64Zm40.434,3.772a40.259,40.259,0,0,1-3.2,4.393,28.353,28.353,0,0,1-3.979,3.933,19.65,19.65,0,0,1-4.715,2.829A13.835,13.835,0,0,1,148.12.368a7.5,7.5,0,0,1-2.07-.276,4.916,4.916,0,0,1-1.679-.828,4.133,4.133,0,0,1-1.15-1.4,4.326,4.326,0,0,1-.437-2,3.35,3.35,0,0,1,.782-2.162,2.579,2.579,0,0,1,2.116-.966,1.764,1.764,0,0,1,1.127.345,1.238,1.238,0,0,1,.437,1.035,1.876,1.876,0,0,1-.322,1.1,1.1,1.1,0,0,1-.966.46,1.14,1.14,0,0,1-.805-.276,1.3,1.3,0,0,1-.391-.69,1.425,1.425,0,0,0-.69.805,3.269,3.269,0,0,0-.184,1.081,2.7,2.7,0,0,0,1.219,2.415,4.857,4.857,0,0,0,2.737.805,3.439,3.439,0,0,0,1.679-.391,3.827,3.827,0,0,0,1.2-1.012,4.133,4.133,0,0,0,.713-1.449,6.163,6.163,0,0,0,.23-1.656,6,6,0,0,0-.3-1.817q-.3-.943-.667-1.863t-.69-1.817a4.985,4.985,0,0,1-.322-1.679,3.915,3.915,0,0,1,.414-1.817,4.021,4.021,0,0,1,1.127-1.357,5.336,5.336,0,0,1,1.633-.851,6.211,6.211,0,0,1,1.932-.3,5.1,5.1,0,0,1,2.99.8,2.492,2.492,0,0,1,1.15,2.139,1.9,1.9,0,0,1-.9,1.748,3.742,3.742,0,0,1-2,.552,6.115,6.115,0,0,0,.483-1.219,4.732,4.732,0,0,0,.207-1.311,2.182,2.182,0,0,0-.575-1.541,2.115,2.115,0,0,0-1.633-.621,2.38,2.38,0,0,0-1.978.805,3.031,3.031,0,0,0-.644,1.955,5.457,5.457,0,0,0,.345,1.932,19.151,19.151,0,0,0,.805,1.84q.414.92.759,1.886a6.4,6.4,0,0,1,.345,2.162,3.8,3.8,0,0,1-.391,1.679,5.689,5.689,0,0,1-1.035,1.472,6.458,6.458,0,0,1-1.449,1.127,4.909,4.909,0,0,1-1.633.6l.092.092a13.384,13.384,0,0,0,4.738-1.449,22.106,22.106,0,0,0,4.209-2.852,30.335,30.335,0,0,0,3.611-3.68,40.817,40.817,0,0,0,2.9-3.933Zm20.378.23a8.948,8.948,0,0,1-2.484,1.978,5.739,5.739,0,0,1-2.714.736,4.082,4.082,0,0,1-2.208-.575,4.5,4.5,0,0,1-1.426-1.357h-.092a13.646,13.646,0,0,1-1.7,3.726A19.118,19.118,0,0,1,172.247-3.5a17.036,17.036,0,0,1-3.795,2.76,8.9,8.9,0,0,1-4.232,1.1,3.772,3.772,0,0,1-2.99-1.15,4.5,4.5,0,0,1-1.012-3.082,6.751,6.751,0,0,1,.506-2.346,13.728,13.728,0,0,1,1.4-2.691,20.666,20.666,0,0,1,2.116-2.668,18.219,18.219,0,0,1,2.645-2.346,13.476,13.476,0,0,1,3.013-1.656,8.712,8.712,0,0,1,3.2-.621,3.809,3.809,0,0,1,2.921,1.1,4.355,4.355,0,0,1,1.127,2.852,3.126,3.126,0,0,0,.989,1.955,3.326,3.326,0,0,0,2.461.9,5.194,5.194,0,0,0,2.6-.69,9.938,9.938,0,0,0,2.277-1.794ZM162.7-2.76a3.364,3.364,0,0,0,.46,1.886,1.548,1.548,0,0,0,1.38.69A5.08,5.08,0,0,0,167-.851,11.1,11.1,0,0,0,169.349-2.6a16.53,16.53,0,0,0,2.093-2.461,20.721,20.721,0,0,0,1.679-2.852,18.849,18.849,0,0,0,1.127-2.875,9.1,9.1,0,0,0,.414-2.553,2.71,2.71,0,0,0-.483-1.633,1.722,1.722,0,0,0-1.495-.667,4.255,4.255,0,0,0-2.07.621,12.67,12.67,0,0,0-2.231,1.633,16.719,16.719,0,0,0-2.139,2.346,24.456,24.456,0,0,0-1.817,2.76,15.464,15.464,0,0,0-1.265,2.852A8.717,8.717,0,0,0,162.7-2.76Zm43.562-8.878A8.948,8.948,0,0,1,203.78-9.66a5.739,5.739,0,0,1-2.714.736,4.082,4.082,0,0,1-2.208-.575,4.5,4.5,0,0,1-1.426-1.357h-.092a13.645,13.645,0,0,1-1.7,3.726A19.118,19.118,0,0,1,192.671-3.5a17.036,17.036,0,0,1-3.795,2.76,8.9,8.9,0,0,1-4.232,1.1,3.772,3.772,0,0,1-2.99-1.15,4.5,4.5,0,0,1-1.012-3.082,6.751,6.751,0,0,1,.506-2.346,13.728,13.728,0,0,1,1.4-2.691,20.666,20.666,0,0,1,2.116-2.668,18.219,18.219,0,0,1,2.645-2.346,13.476,13.476,0,0,1,3.013-1.656,8.712,8.712,0,0,1,3.2-.621,3.809,3.809,0,0,1,2.921,1.1,4.355,4.355,0,0,1,1.127,2.852,3.126,3.126,0,0,0,.989,1.955,3.326,3.326,0,0,0,2.461.9,5.194,5.194,0,0,0,2.6-.69,9.938,9.938,0,0,0,2.277-1.794ZM183.126-2.76a3.364,3.364,0,0,0,.46,1.886,1.548,1.548,0,0,0,1.38.69,5.08,5.08,0,0,0,2.461-.667A11.1,11.1,0,0,0,189.773-2.6a16.53,16.53,0,0,0,2.093-2.461,20.721,20.721,0,0,0,1.679-2.852,18.849,18.849,0,0,0,1.127-2.875,9.1,9.1,0,0,0,.414-2.553,2.71,2.71,0,0,0-.483-1.633,1.722,1.722,0,0,0-1.495-.667,4.255,4.255,0,0,0-2.07.621,12.67,12.67,0,0,0-2.231,1.633,16.719,16.719,0,0,0-2.139,2.346,24.456,24.456,0,0,0-1.817,2.76,15.464,15.464,0,0,0-1.265,2.852A8.717,8.717,0,0,0,183.126-2.76Zm27.508-13.064-6.072,8.418.092.092q.966-1.15,2.254-2.691a33.082,33.082,0,0,1,2.76-2.921,17.71,17.71,0,0,1,3.059-2.323,6.132,6.132,0,0,1,3.151-.943,2.892,2.892,0,0,1,2.139.759,2.646,2.646,0,0,1,.759,1.955,3.915,3.915,0,0,1-.529,1.748,22.045,22.045,0,0,1-1.311,2.162q-.782,1.15-1.7,2.346t-1.7,2.277q-.782,1.081-1.311,1.978a3.138,3.138,0,0,0-.529,1.495A1.138,1.138,0,0,0,212.98-.184a6.144,6.144,0,0,0,3.128-.989,21.212,21.212,0,0,0,3.956-3.335q.92-.92,1.863-2.024t1.817-2.185q.874-1.081,1.587-2.047t1.127-1.61l.322.184q-.92,1.38-2.369,3.289T221.26-5.152q-1.012,1.1-2.07,2.116a19.629,19.629,0,0,1-2.116,1.771,10.854,10.854,0,0,1-2.093,1.2,5.233,5.233,0,0,1-2.047.437,3.31,3.31,0,0,1-2.208-.736,2.5,2.5,0,0,1-.874-2.024,5.493,5.493,0,0,1,1.1-3.013q1.1-1.633,2.438-3.289t2.438-3.174a4.771,4.771,0,0,0,1.1-2.668.969.969,0,0,0-.368-.828,1.569,1.569,0,0,0-.966-.276,5.144,5.144,0,0,0-2.576.851,17.238,17.238,0,0,0-2.921,2.254,42.073,42.073,0,0,0-2.99,3.128q-1.495,1.725-2.783,3.45t-2.3,3.312A26.152,26.152,0,0,0,200.514,0h-2.852q1.2-2.024,2.553-4.117t2.691-4.14q1.334-2.047,2.553-3.956t2.185-3.473Z" transform="translate(744.86 607.412)"/>
    <g id="Group_16671" data-name="Group 16671" transform="translate(739.982 360.449)">
      <g id="Group_23328" data-name="Group 23328">
        <g id="Group_16644" data-name="Group 16644">
          <g id="Group_16643" data-name="Group 16643" clip-path="url(#clip-path)">
            <path id="Path_5301" data-name="Path 5301" d="M399.858,602.167l-.229-.239,1.437-1.371.229.239Zm2.87-2.75-.233-.236c.467-.46.935-.934,1.392-1.41l.239.229c-.459.478-.93.954-1.4,1.416m2.758-2.871-.245-.223c.439-.482.881-.981,1.315-1.483l.251.217c-.435.5-.879,1-1.32,1.489m2.6-3.012-.256-.21c.413-.5.83-1.024,1.239-1.547l.261.2c-.41.525-.829,1.048-1.244,1.554m2.45-3.136-.265-.2c.388-.522.781-1.062,1.165-1.6l.27.191c-.386.544-.779,1.086-1.17,1.61m2.3-3.245-.274-.186q.556-.821,1.1-1.653l.278.18q-.541.835-1.1,1.659m18.135-2.3a4.846,4.846,0,0,1-1.784-.34l.123-.307a4.518,4.518,0,0,0,1.661.316c.082-.008.143,0,.214,0l.016.33c-.077,0-.168,0-.231.005m2.2-.566-.165-.286a3.6,3.6,0,0,0,1.32-1.333l.287.164a3.923,3.923,0,0,1-1.442,1.455M415,583.815l-.281-.175q.522-.842,1.029-1.695l.284.169q-.508.855-1.032,1.7m12.511-.461a5.806,5.806,0,0,1-1.09-1.717l.305-.128a5.484,5.484,0,0,0,1.027,1.62Zm7.649-2.489-.331-.007v-.088a3.438,3.438,0,0,0-.292-1.406q-.075-.166-.164-.323l.288-.163q.1.17.178.35a3.769,3.769,0,0,1,.322,1.542Zm-17.995-.347-.254-.213a12.6,12.6,0,0,1,1.41-1.433l.217.25a12.284,12.284,0,0,0-1.373,1.4m8.745-.841a8.044,8.044,0,0,1-.057-.958,8.51,8.51,0,0,1,.067-1.064l.328.041a8.163,8.163,0,0,0-.065,1.023,7.691,7.691,0,0,0,.055.918Zm-5.793-1.713-.174-.282a13.614,13.614,0,0,1,1.782-.927l.131.3a13.286,13.286,0,0,0-1.739.9m12.984-.342a7.278,7.278,0,0,0-1.691-.942l.124-.307a7.6,7.6,0,0,1,1.768.986Zm-9.393-1.209-.087-.319a14.227,14.227,0,0,1,1.97-.389l.041.328a13.892,13.892,0,0,0-1.924.38m5.827-.275a12.007,12.007,0,0,0-1.946-.2l.008-.331a12.362,12.362,0,0,1,2,.21Zm-2.829-.335-.312-.112a9.9,9.9,0,0,1,.874-1.818l.282.173a9.57,9.57,0,0,0-.844,1.757m2.023-3.31-.242-.225q.145-.155.3-.306A10.766,10.766,0,0,1,430,570.933l.2.267a10.4,10.4,0,0,0-1.174,1q-.147.145-.287.3m3.133-2.308-.147-.3a12.351,12.351,0,0,1,1.869-.743l.1.317a12.035,12.035,0,0,0-1.818.723m3.734-1.216-.082-.321c.647-.166,1.291-.34,1.914-.516l.09.318c-.625.177-1.272.352-1.922.518m3.829-1.088-.1-.316c.638-.2,1.271-.411,1.88-.623l.109.313c-.612.214-1.248.425-1.89.627m3.759-1.315-.12-.309c.62-.24,1.236-.493,1.832-.75l.131.3c-.6.259-1.22.513-1.844.755m3.657-1.58-.143-.3,1.786-.867.145.3Zm3.574-1.736-.145-.3,1.786-.868.145.3Zm3.572-1.737-.145-.3,1.786-.868.145.3Zm3.572-1.737-.145-.3,1.786-.868.145.3Zm3.572-1.737-.145-.3,1.786-.868.145.3Z" transform="translate(-346.715 -483.142)" fill="#2d5a93"/>
            <path id="Path_5302" data-name="Path 5302" d="M818.068,13.347a1.682,1.682,0,0,0,.008.2h43.532a6.9,6.9,0,0,0-7.068-6.466,7.388,7.388,0,0,0-3.387.812,7.721,7.721,0,0,0-3.762-6.9,7.989,7.989,0,0,0-10.834,3.261A8.7,8.7,0,0,0,835.413,8a15.739,15.739,0,0,0-6.486-1.321c-6,0-10.859,2.986-10.859,6.668" transform="translate(-709.75 0)" fill="#cfe9fe"/>
            <path id="Path_5303" data-name="Path 5303" d="M35.9,794.7H0l0-.128a5.741,5.741,0,0,1,5.914-5.417,6.234,6.234,0,0,1,2.649.59,6.464,6.464,0,0,1,3.144-5.561,6.244,6.244,0,0,1,4.783-.605,7,7,0,0,1,4.262,3.323,7.207,7.207,0,0,1,.939,2.945,13.071,13.071,0,0,1,5.2-1.022c4.973,0,9.019,2.506,9.019,5.586a1.542,1.542,0,0,1-.007.18ZM.258,794.454h35.41v-.041c0-2.943-3.934-5.338-8.77-5.338a12.732,12.732,0,0,0-5.261,1.071l-.164.075-.012-.179a6.953,6.953,0,0,0-.921-3.015,6.751,6.751,0,0,0-4.111-3.206,6,6,0,0,0-4.594.58,6.23,6.23,0,0,0-3.02,5.544l0,.207-.185-.095a5.969,5.969,0,0,0-2.717-.652,5.5,5.5,0,0,0-5.66,5.048" transform="translate(0 -679.634)" fill="#cfe9fe"/>
          </g>
        </g>
        <g id="Group_16655" data-name="Group 16655" transform="translate(106.088 59.727)">
          <g id="Group_16654" data-name="Group 16654" clip-path="url(#clip-path-2)">
            <path id="Path_5304" data-name="Path 5304" d="M801.224,502.848a7.66,7.66,0,0,0,7.66,7.66h85.081a7.66,7.66,0,0,0,7.66-7.66V451.082h-100.4Z" transform="translate(-801.224 -451.082)" fill="#fff"/>
            <path id="Path_5305" data-name="Path 5305" d="M666.5,505.01a10.355,10.355,0,0,1,8.943-6.957,10.535,10.535,0,0,1,9.972,5.531,6.207,6.207,0,0,1,5.334,3,5.772,5.772,0,0,1-.186,5.957,8.425,8.425,0,0,1,6.016,4.409,7.9,7.9,0,0,1-.161,7.288,9.675,9.675,0,0,1,9.162.332,9.009,9.009,0,0,1,4.33,7.814,9.638,9.638,0,0,1,16.556.754,15.314,15.314,0,0,1,10.757-9.745,15.958,15.958,0,0,1,14.281,3.619c5.6.876,9.681,6.957,8.222,12.249a11.3,11.3,0,0,1,3.939,10.368,11.555,11.555,0,0,1-7.1,8.634l-96.351-.062L652,521.443Z" transform="translate(-671.758 -491.81)" fill="#cfe9fe"/>
            <g id="Group_16647" data-name="Group 16647" transform="translate(-20.809 18.416)" opacity="0.8">
              <g id="Group_16646" data-name="Group 16646">
                <g id="Group_16645" data-name="Group 16645" clip-path="url(#clip-path-3)">
                  <path id="Path_5306" data-name="Path 5306" d="M658.092,597.164a9.84,9.84,0,0,1,18.277-1.441,5.822,5.822,0,0,1,4.967,8.955,8.015,8.015,0,0,1,5.647,11.693,8.889,8.889,0,0,1,13.028,8.135,9.153,9.153,0,0,1,15.995.741A14.748,14.748,0,0,1,740.2,619.1a10.25,10.25,0,0,1,7.934,12.242,11.275,11.275,0,0,1-3.074,19l-93.089.014-7.907-36.753Z" transform="translate(-644.066 -590.172)" fill="#fff"/>
                </g>
              </g>
            </g>
            <g id="Group_16650" data-name="Group 16650" transform="translate(-7.004 1.657)" opacity="0.7">
              <g id="Group_16649" data-name="Group 16649">
                <g id="Group_16648" data-name="Group 16648" clip-path="url(#clip-path-4)">
                  <path id="Path_5307" data-name="Path 5307" d="M822.558,463.6c-27.886,26.224-47.661,33.3-72.573,35.824L748.329,525.9l26.15,8.938c22.84-.662,44.771-33.727,58.318-62.093Z" transform="translate(-748.329 -463.599)" fill="#fff2e0"/>
                </g>
              </g>
            </g>
            <path id="Path_5308" data-name="Path 5308" d="M1211.248,466.173c-4.534,5.364-11.371,10.495-19.436,17.425l11-4.485a74.941,74.941,0,0,1-4.416,6.707,37.159,37.159,0,0,0,7.969-5.112c0,1.905-2.3,5.093-3.3,6.834,5.869-5.023,11.209-11.156,12.934-16.543Z" transform="translate(-1140.095 -464.175)" fill="#ffa121"/>
            <g id="Group_16653" data-name="Group 16653" transform="translate(60.998 2.269)" opacity="0.4">
              <g id="Group_16652" data-name="Group 16652">
                <g id="Group_16651" data-name="Group 16651" clip-path="url(#clip-path-5)">
                  <path id="Path_5309" data-name="Path 5309" d="M1273.349,468.221c-2.682,3.555-6.7,6.982-11.439,11.6l6.421-3.047c-.8,1.477-1.975,3.543-2.627,4.433a22.474,22.474,0,0,0,4.669-3.426c-.02,1.247-1.383,3.355-1.98,4.5,3.452-3.346,6.608-7.412,7.663-10.954Z" transform="translate(-1261.91 -468.221)" fill="#fff"/>
                </g>
              </g>
            </g>
            <path id="Path_5310" data-name="Path 5310" d="M1006.671,588.1c.036.829,0,2.229-.829,2.708-1.383.8-2.47-1.143-2.978-2.12a2.1,2.1,0,0,1,.918-3.134c1.809-.687,2.822,1,2.888,2.546" transform="translate(-975.873 -567.614)" fill="#cfe9fe"/>
            <path id="Path_5311" data-name="Path 5311" d="M1501.791,778.21c.036.829,0,2.229-.829,2.708-1.383.8-2.47-1.143-2.978-2.12a2.1,2.1,0,0,1,.918-3.134c1.809-.687,2.822,1,2.888,2.546" transform="translate(-1405.435 -732.55)" fill="#cfe9fe"/>
            <path id="Path_5312" data-name="Path 5312" d="M971.9,527.4a1.159,1.159,0,1,1-1.159-1.159A1.159,1.159,0,0,1,971.9,527.4" transform="translate(-947.288 -516.288)" fill="#cfe9fe"/>
            <path id="Path_5313" data-name="Path 5313" d="M1413.534,681.346a1.764,1.764,0,1,1-1.764-1.764,1.764,1.764,0,0,1,1.764,1.764" transform="translate(-1329.399 -649.327)" fill="#cfe9fe"/>
          </g>
        </g>
        <g id="Group_16669" data-name="Group 16669">
          <g id="Group_16668" data-name="Group 16668" clip-path="url(#clip-path)">
            <path id="Path_5315" data-name="Path 5315" d="M892.88,509.589H807.8a7.835,7.835,0,0,1-7.826-7.826V449.832H900.705v51.931a7.835,7.835,0,0,1-7.826,7.826M800.3,450.163v51.6a7.5,7.5,0,0,0,7.495,7.495h85.08a7.5,7.5,0,0,0,7.495-7.495v-51.6Z" transform="translate(-694.052 -390.271)" fill="#cfe9fe"/>
            <path id="Path_5316" data-name="Path 5316" d="M893.965,299.615H808.884a7.659,7.659,0,0,0-7.66,7.66v12.4h100.4v-12.4a7.66,7.66,0,0,0-7.66-7.66" transform="translate(-695.136 -259.944)" fill="#fff"/>
            <path id="Path_5317" data-name="Path 5317" d="M900.705,318.751H799.974V306.19a7.834,7.834,0,0,1,7.826-7.825h85.08a7.834,7.834,0,0,1,7.826,7.825Zm-100.4-.331H900.374V306.19a7.5,7.5,0,0,0-7.495-7.494H807.8a7.5,7.5,0,0,0-7.495,7.494Z" transform="translate(-694.052 -258.859)" fill="#cfe9fe"/>
            <path id="Path_5318" data-name="Path 5318" d="M854.292,347.832a4.2,4.2,0,1,1-4.2-4.2,4.2,4.2,0,0,1,4.2,4.2" transform="translate(-733.891 -298.133)" fill="#cfe9fe"/>
            <path id="Path_5319" data-name="Path 5319" d="M947.712,347.832a4.2,4.2,0,1,1-4.2-4.2,4.2,4.2,0,0,1,4.2,4.2" transform="translate(-814.941 -298.133)" fill="#fff"/>
            <path id="Path_5320" data-name="Path 5320" d="M942.428,351.112a4.365,4.365,0,1,1,4.365-4.365,4.37,4.37,0,0,1-4.365,4.365m0-8.4a4.034,4.034,0,1,0,4.034,4.034,4.039,4.039,0,0,0-4.034-4.034" transform="translate(-813.857 -297.048)" fill="#cfe9fe"/>
            <path id="Path_5321" data-name="Path 5321" d="M1076.639,353.093h-16.721a4.008,4.008,0,0,1-4.008-4.008h0a4.008,4.008,0,0,1,4.008-4.008h16.721a4.008,4.008,0,0,1,4.008,4.008h0a4.008,4.008,0,0,1-4.008,4.008" transform="translate(-916.1 -299.385)" fill="none"/>
            <path id="Path_5322" data-name="Path 5322" d="M1075.555,352.173h-16.721a4.174,4.174,0,1,1,0-8.348h16.721a4.174,4.174,0,1,1,0,8.348m-16.721-8.017a3.843,3.843,0,0,0,0,7.686h16.721a3.843,3.843,0,1,0,0-7.686Z" transform="translate(-915.015 -298.3)" fill="#cfe9fe"/>
            <path id="Path_5323" data-name="Path 5323" d="M1326.937,230.615c-6.705,5.869-18.269,1.824-21.863,6.511l10.268,8.131Z" transform="translate(-1132.273 -200.08)" fill="#2d5a93"/>
            <path id="Path_5324" data-name="Path 5324" d="M1303.411,279.787h0a3.968,3.968,0,0,0,.725,4.006l7.276,8.334,2.267-4.21Z" transform="translate(-1130.61 -242.741)" fill="#cfe9fe"/>
            <path id="Path_5325" data-name="Path 5325" d="M1508.995,321.5c-4.176,7.872,2.412,18.2-1.326,22.773l-10.268-8.131Z" transform="translate(-1299.133 -278.933)" fill="#2d5a93"/>
            <path id="Path_5326" data-name="Path 5326" d="M1484.224,440.215h0a3.969,3.969,0,0,1-4.066.212l-9.78-5.172,3.578-3.171Z" transform="translate(-1275.689 -374.873)" fill="#cfe9fe"/>
            <path id="Path_5327" data-name="Path 5327" d="M1564.463,154.42l-9.142,3.356,7.971,6.312Z" transform="translate(-1349.385 -133.973)" fill="#1b1b43"/>
            <path id="Path_5328" data-name="Path 5328" d="M1374.534,186.079c-1.277,14.466-11.966,27.964-24.948,35.462l-11.83-9.358c4.964-15.618,14.209-26.794,28.807-32.415Z" transform="translate(-1160.627 -155.965)" fill="#cfe9fe"/>
            <path id="Path_5329" data-name="Path 5329" d="M1304.133,424.583,1299,428.136l14.678,11.623,2.284-5.818Z" transform="translate(-1127.004 -368.365)" fill="#2d5a93"/>
            <path id="Path_5330" data-name="Path 5330" d="M1497.726,241.777a5.49,5.49,0,1,1-.9-7.713,5.491,5.491,0,0,1,.9,7.713" transform="translate(-1290.918 -202.043)" fill="#fff"/>
            <path id="Path_5331" data-name="Path 5331" d="M1504.271,252.657l-.035-.329a3.605,3.605,0,0,0,.92-.223l.12.309a3.919,3.919,0,0,1-1,.244m-1.033-.026a3.878,3.878,0,0,1-.991-.3l.136-.3a3.563,3.563,0,0,0,.906.271Zm2.943-.716-.2-.266a3.6,3.6,0,0,0,.68-.659l.259.206a3.907,3.907,0,0,1-.743.719m-4.811-.127a3.906,3.906,0,0,1-.705-.756l.269-.192a3.591,3.591,0,0,0,.646.692Zm5.958-1.215-.293-.153a3.583,3.583,0,0,0,.322-.89l.323.07a3.906,3.906,0,0,1-.352.972m-7.146-.455a3.936,3.936,0,0,1-.225-1.009l.33-.029a3.6,3.6,0,0,0,.206.924Zm7.252-1.53a3.618,3.618,0,0,0-.172-.931l.315-.1a3.942,3.942,0,0,1,.188,1.016Zm-7.105-.453-.326-.058a3.875,3.875,0,0,1,.316-.985l.3.142a3.563,3.563,0,0,0-.288.9m6.524-1.331a3.572,3.572,0,0,0-.619-.716l.22-.248a3.916,3.916,0,0,1,.676.782Zm-5.721-.364-.251-.215a3.912,3.912,0,0,1,.769-.691l.187.273a3.587,3.587,0,0,0-.7.633m4.318-.882a3.564,3.564,0,0,0-.9-.305l.064-.325a3.9,3.9,0,0,1,.979.334Zm-2.768-.176-.108-.313a3.941,3.941,0,0,1,1.012-.206l.023.33a3.608,3.608,0,0,0-.928.189" transform="translate(-1301.352 -212.44)" fill="#9192ff"/>
            <path id="Path_5332" data-name="Path 5332" d="M1321.146,437.452l-.262-.207a.893.893,0,0,1-.145-1.251l10.3-13a.893.893,0,0,1,1.251-.145l.262.207a.893.893,0,0,1,.145,1.251l-10.3,13a.893.893,0,0,1-1.251.145" transform="translate(-1145.698 -366.692)" fill="#1b1b43"/>
            <path id="Path_5333" data-name="Path 5333" d="M1161.306,1153.692h-1.986v-.331h1.986Zm-3.972,0h-1.986v-.331h1.986Zm-3.972,0h-1.986v-.331h1.986Zm-3.972,0H1147.4v-.331h1.986Zm-3.972,0h-1.986v-.331h1.986Zm-3.972,0h-1.986v-.331h1.986Zm-3.972,0h-1.986v-.331h1.986Zm-3.972,0h-1.986v-.331h1.986Zm-3.972,0h-1.986v-.331h1.986Zm-3.972,0h-1.986v-.331h1.986Zm-3.974,0a6.33,6.33,0,0,1-2-.341l.107-.313a6.014,6.014,0,0,0,1.9.323Zm39.963,0-.012-.331a6.005,6.005,0,0,0,1.887-.377l.116.31a6.342,6.342,0,0,1-1.991.4m-43.754-1.3a6.379,6.379,0,0,1-1.4-1.473l.273-.187a6.037,6.037,0,0,0,1.324,1.4Zm47.506-.111-.208-.257a6.03,6.03,0,0,0,1.284-1.433l.279.179a6.378,6.378,0,0,1-1.355,1.512m-49.764-3.2a6.355,6.355,0,0,1-.241-1.738v-.271h.331v.271a6.036,6.036,0,0,0,.228,1.648Zm51.927-.174-.321-.081a6.056,6.056,0,0,0,.184-1.483v-.446h.331v.446a6.373,6.373,0,0,1-.194,1.564m-51.838-3.821h-.331V1143.1h.331Zm52.032-.175h-.331v-1.986h.331Zm-52.032-3.8h-.331v-1.986h.331Zm52.032-.175h-.331v-1.986h.331Zm-52.032-3.8h-.331v-1.986h.331Zm52.032-.176h-.331v-1.986h.331Zm-52.032-3.8h-.331v-1.986h.331Zm52.032-.175h-.331v-1.986h.331Zm-52.032-3.8h-.331v-1.986h.331Zm52.032-.175h-.331v-1.986h.331Zm-52.032-3.8h-.331V1123.9a6.414,6.414,0,0,1,.036-.679l.329.035a6.119,6.119,0,0,0-.034.644Zm52.032-.175h-.331V1123.9a6.161,6.161,0,0,0-.054-.814l.328-.044a6.445,6.445,0,0,1,.057.858Zm-51.49-3.647-.3-.138a6.354,6.354,0,0,1,1.129-1.688l.242.226a6.008,6.008,0,0,0-1.07,1.6m50.544-.154a6.035,6.035,0,0,0-1.115-1.569l.236-.232a6.351,6.351,0,0,1,1.176,1.655Zm-47.955-2.628-.159-.29a6.305,6.305,0,0,1,1.914-.677l.059.326a5.968,5.968,0,0,0-1.814.641m45.29-.08a5.975,5.975,0,0,0-1.831-.589l.049-.327a6.3,6.3,0,0,1,1.933.621Zm-3.789-.657h-1.986v-.331h1.986Zm-3.972,0H1154.3v-.331h1.986Zm-3.972,0h-1.986v-.331h1.986Zm-3.972,0h-1.986v-.331h1.986Zm-3.972,0h-1.986v-.331h1.986Zm-3.972,0h-1.986v-.331h1.986Zm-3.972,0h-1.986v-.331h1.986Zm-3.972,0h-1.986v-.331h1.986Zm-3.972,0h-1.986v-.331h1.986Zm-3.972,0h-1.986v-.331h1.986Z" transform="translate(-967.619 -969.58)" fill="#9192ff"/>
            <path id="Path_5334" data-name="Path 5334" d="M1126.538,1106.067H1084.28a4.887,4.887,0,0,1-4.887-4.888V1074.16a4.887,4.887,0,0,1,4.887-4.887h42.257a4.888,4.888,0,0,1,4.887,4.887v27.019a4.888,4.888,0,0,1-4.887,4.888" transform="translate(-936.473 -927.693)" fill="#2e578b"/>
            <rect id="Rectangle_4238" data-name="Rectangle 4238" width="5.634" height="11.441" transform="translate(151.966 163.072)" fill="#fff"/>
            <rect id="Rectangle_4239" data-name="Rectangle 4239" width="5.634" height="11.074" transform="translate(161.401 163.439)" fill="#fff"/>
            <rect id="Rectangle_4240" data-name="Rectangle 4240" width="5.634" height="16.859" transform="translate(170.836 157.654)" fill="#fff"/>
            <rect id="Rectangle_4241" data-name="Rectangle 4241" width="5.634" height="21.805" transform="translate(180.271 152.708)" fill="#fff"/>
            <rect id="Rectangle_4242" data-name="Rectangle 4242" width="30.23" height="1.322" transform="translate(153.821 146.761)" fill="#fff"/>
            <path id="Path_5335" data-name="Path 5335" d="M421.45,738.326a15.691,15.691,0,0,0-5.768-8.283l-1.118-.823.949,19.628,7.335-5.674Z" transform="translate(-359.673 -632.666)" fill="#d92438"/>
            <path id="Path_5336" data-name="Path 5336" d="M451.238,853.478l-1.63-3.191a3.239,3.239,0,0,0-2.02-1.649l-4.8-1.328-12.335-7.875-1.395-4.835-7.335,5.674.067,1.379a7.254,7.254,0,0,0,4.372,6.31l11.977,5.167,5.693.127c1.834.633,2.467,2.214,3.606,1.645.424-.212-1.234-2.941-1.234-2.941L448.961,855Z" transform="translate(-365.888 -724.093)" fill="#ffbc96"/>
            <rect id="Rectangle_4243" data-name="Rectangle 4243" width="2.491" height="0.38" transform="matrix(0.647, -0.762, 0.762, 0.647, 62.813, 117.117)" fill="#d28572"/>
            <path id="Path_5337" data-name="Path 5337" d="M482.573,1031.774l8.974-.792c5.842-.516,10.923,4.2,11.208,10.4l2.028,44.2-12.38.386Z" transform="translate(-418.677 -894.438)" fill="#22405d"/>
            <path id="Path_5338" data-name="Path 5338" d="M564.339,1435.343l.379,12.209h18.345l-9.046-7.528-.569-5.883Z" transform="translate(-489.616 -1244.25)" fill="#1b1b43"/>
            <rect id="Rectangle_4244" data-name="Rectangle 4244" width="4.871" height="0.759" transform="translate(80.311 198.446) rotate(-37.616)" fill="#fff"/>
            <path id="Path_5339" data-name="Path 5339" d="M532.807,1435.343l.38,12.209h18.345l-9.046-7.528-.569-5.883Z" transform="translate(-462.26 -1244.25)" fill="#cfe9fe"/>
            <rect id="Rectangle_4245" data-name="Rectangle 4245" width="4.871" height="0.759" transform="translate(76.136 198.446) rotate(-37.616)" fill="#fff"/>
            <path id="Path_5340" data-name="Path 5340" d="M269.834,1051.895H254.652L243.831,1018.6l-1.514-4.661-21.634-.095a5.987,5.987,0,0,1-3.7-1.552,8.808,8.808,0,0,1-2.942-7.967l1.9-13.538,32.14,4.179a14.433,14.433,0,0,1,12.271,11.371Z" transform="translate(-185.623 -859.6)" fill="#2c5a93"/>
            <path id="Path_5341" data-name="Path 5341" d="M432.64,1165.645l-2.945,4.661-1.514-4.661Z" transform="translate(-371.486 -1011.305)" fill="#1b1b43"/>
            <path id="Path_5342" data-name="Path 5342" d="M223.091,753.941c-.156.626-.319,1.252-.486,1.883l-1.139,4.649-14.992-.623L195.68,759.4a4.637,4.637,0,0,1-4.35-5.579l5.033-24.219a9.194,9.194,0,0,1,8.137-7.716l12.316-1.268,3.985,1.139c3.89,2.087,3.894,5.871,4.08,8.35.816,10.847-.19,17.417-1.791,23.832" transform="translate(-165.911 -625.206)" fill="#d92438"/>
            <g id="Group_16658" data-name="Group 16658" transform="translate(31.454 111.326)" opacity="0.3">
              <g id="Group_16657" data-name="Group 16657">
                <g id="Group_16656" data-name="Group 16656" clip-path="url(#clip-path-7)">
                  <path id="Path_5343" data-name="Path 5343" d="M253.118,857.42c-.156.626,9.845,2.027,9.678,2.657l-1.139,4.649-14.992-.622c-5.238-3.951-7.2-12.548-9.109-23.319Z" transform="translate(-237.557 -840.784)" fill="#1b1b43"/>
                </g>
              </g>
            </g>
            <path id="Path_5344" data-name="Path 5344" d="M331.836,773.531a9.015,9.015,0,0,0,2.24,1.776,7.4,7.4,0,0,0,2.677.9,4.5,4.5,0,0,0,2.724-.4,2.8,2.8,0,0,0,1.464-2.237l.148.01a3.063,3.063,0,0,1-.377,1.444,2.877,2.877,0,0,1-1.071,1.072,4.682,4.682,0,0,1-2.935.484,7.3,7.3,0,0,1-2.79-1,7.874,7.874,0,0,1-2.194-1.958Z" transform="translate(-287.8 -671.11)" fill="#1b1b43"/>
            <path id="Path_5345" data-name="Path 5345" d="M440.643,793.475l-.284-.02a65.181,65.181,0,0,0-.821-13.949l.282-.042a65.449,65.449,0,0,1,.823,14.011" transform="translate(-381.34 -676.257)" fill="#1b1b43"/>
            <rect id="Rectangle_4247" data-name="Rectangle 4247" width="14.106" height="2.783" transform="translate(70.674 130.682)" fill="#1b1b43"/>
            <path id="Path_5346" data-name="Path 5346" d="M639.02,844.678H610.68l13.031-24.923h28.34Z" transform="translate(-529.822 -711.213)" fill="#2d5a93"/>
            <path id="Path_5347" data-name="Path 5347" d="M254.278,558.649c-3.321-3.274-9.584-1.9-9.489,3.606-6.832,1.8-7.211,9.3-4.46,13.142l2.372.19.522-2.8,1.376,2.847,6.642.427Z" transform="translate(-207.12 -483.16)" fill="#1b1b43"/>
            <path id="Path_5348" data-name="Path 5348" d="M334.639,662.574V673.03c0,.095,0,.186-.011.277a3.51,3.51,0,0,1-4.376,3.124,7.059,7.059,0,0,1-5.295-6.893l.053-6.965Z" transform="translate(-281.93 -574.844)" fill="#ffbc96"/>
            <path id="Path_5349" data-name="Path 5349" d="M353.317,690.1v5.936c0,.095,0,.186-.011.277-2.8-.459-6.031-3.7-6.82-7.223Z" transform="translate(-300.608 -597.849)" fill="#1b1b43"/>
            <path id="Path_5350" data-name="Path 5350" d="M339.7,607.691a18.849,18.849,0,0,1-.6,2.49c-.835,2.653-2.334,4.854-5.018,4.471-6.308-.9-9.819-7.4-9.819-7.4l4.315-4.934,2.9-3.894,8.68,3.75a32.647,32.647,0,0,1-.459,5.519" transform="translate(-281.333 -519.187)" fill="#ffbc96"/>
            <path id="Path_5351" data-name="Path 5351" d="M310.206,574.877c2.768-.089,4.91-1.5,5.82-5.5,0,0,6.452,5.567,9.615,2.594,2.649-2.49-1.845-8.218-9.282-8.9a10.538,10.538,0,0,0-7.533,2.3c-3.6,2.888-3.949,9.606-.581,11.931Z" transform="translate(-265.405 -488.476)" fill="#1b1b43"/>
            <path id="Path_5352" data-name="Path 5352" d="M313.341,569.667a2.957,2.957,0,0,1,.246-2,4.447,4.447,0,0,1,1.3-1.6,4.574,4.574,0,0,1,1.859-.87,3.352,3.352,0,0,1,2,.154,11.1,11.1,0,0,0-1.716.694,9.31,9.31,0,0,0-1.45.921,8.4,8.4,0,0,0-1.241,1.174,6.962,6.962,0,0,0-1,1.529" transform="translate(-271.782 -490.287)" fill="#d92438"/>
            <path id="Path_5353" data-name="Path 5353" d="M319.507,638.369a2.2,2.2,0,1,1-2.973-1.619,2.416,2.416,0,0,1,2.973,1.619" transform="translate(-273.531 -552.326)" fill="#ffbc96"/>
            <path id="Path_5354" data-name="Path 5354" d="M327.071,650.1a3.093,3.093,0,0,0-.084-1.3,3.542,3.542,0,0,0-.682-1.117l.093-.115a1.894,1.894,0,0,1,.815,2.578Z" transform="translate(-283.1 -561.824)" fill="#1b1b43"/>
            <path id="Path_5355" data-name="Path 5355" d="M401.991,651.492a.644.644,0,1,1-.641-.709.678.678,0,0,1,.641.709" transform="translate(-347.652 -564.615)" fill="#1b1b43"/>
            <path id="Path_5356" data-name="Path 5356" d="M428.355,655.771a.574.574,0,1,1-.489-.7.6.6,0,0,1,.489.7" transform="translate(-370.65 -568.334)" fill="#1b1b43"/>
            <path id="Path_5357" data-name="Path 5357" d="M393.023,639.538c.026.331-.5.363-1.286.386s-1.321.265-1.327.055.572-.748,1.342-.878c.8-.134,1.24.043,1.271.437" transform="translate(-338.717 -554.44)" fill="#1b1b43"/>
            <path id="Path_5358" data-name="Path 5358" d="M428.962,642.427c-.057.327.333.411.91.512s.95.4.979.187a1.4,1.4,0,0,0-.895-1.006c-.575-.213-.926-.082-.994.307" transform="translate(-372.16 -557.01)" fill="#1b1b43"/>
            <path id="Path_5359" data-name="Path 5359" d="M421.129,664.814a5.5,5.5,0,0,0,.481.5l.256.238a1.438,1.438,0,0,1,.27.3.545.545,0,0,1,.081.252.5.5,0,0,1-.063.269.933.933,0,0,1-.306.309,1.915,1.915,0,0,1-.71.257l-.055-.138a5.232,5.232,0,0,0,.566-.387.729.729,0,0,0,.177-.212c.029-.063.021-.084-.014-.158-.084-.138-.3-.323-.44-.515a2.155,2.155,0,0,1-.373-.647Z" transform="translate(-365.256 -576.788)" fill="#1b1b43"/>
            <path id="Path_5360" data-name="Path 5360" d="M396.9,682.458a4.759,4.759,0,0,0,1.277,1.112,2.677,2.677,0,0,0,1.613.28l.039.143a2,2,0,0,1-.917.173A2.1,2.1,0,0,1,398,683.9a2.935,2.935,0,0,1-1.223-1.364Z" transform="translate(-344.237 -592.096)" fill="#1b1b43"/>
            <g id="Group_16661" data-name="Group 16661" transform="translate(48.819 86.827)" opacity="0.2">
              <g id="Group_16660" data-name="Group 16660">
                <g id="Group_16659" data-name="Group 16659" clip-path="url(#clip-path-8)">
                  <path id="Path_5361" data-name="Path 5361" d="M371.832,657.323a1.566,1.566,0,1,1-1.566-1.566,1.566,1.566,0,0,1,1.566,1.566" transform="translate(-368.7 -655.757)" fill="#fe5b52"/>
                </g>
              </g>
            </g>
            <g id="Group_16664" data-name="Group 16664" transform="translate(57.381 88.504)" opacity="0.2">
              <g id="Group_16663" data-name="Group 16663">
                <g id="Group_16662" data-name="Group 16662" clip-path="url(#clip-path-9)">
                  <path id="Path_5362" data-name="Path 5362" d="M434.355,668.422a18.848,18.848,0,0,1-.6,2.49,1.566,1.566,0,0,1,.6-2.49" transform="translate(-433.368 -668.422)" fill="#fe5b52"/>
                </g>
              </g>
            </g>
            <path id="Path_5363" data-name="Path 5363" d="M246.6,808.288l-9.046,4.3,2.837,6.725,9.484-4.374Z" transform="translate(-206.103 -701.265)" fill="#c1323a"/>
            <path id="Path_5364" data-name="Path 5364" d="M556.268,981.9c-.251-.126-.408-.21-.408-.21l.091-.178s.167.08.409.21Z" transform="translate(-482.26 -851.548)" fill="#c5c5ff"/>
            <path id="Path_5365" data-name="Path 5365" d="M302.44,876.135c-.292.577-2.532-.444-3.575-.956.808.448,2.2,1.328,1.583,1.811-.5.383-1.6-.433-5.2-1.928.547.258,3.769,1.791,2.957,2.372-.884.63-4.68-.759-4.68-.759l-3.291,1.769h-3.8l-13.656.087a9.954,9.954,0,0,1-2.532-.319,11.359,11.359,0,0,1-4.441-2.3,11.152,11.152,0,0,1-2.106-2.365,12.631,12.631,0,0,1-1.127-2.11l-3.6-8.532,9.485-4.376,4.949,10.047,16.32,3.545,4.555-1.138a4.79,4.79,0,0,1,3.226.695c2.1,1.287,5.207,3.909,4.934,4.46" transform="translate(-224.681 -744.853)" fill="#ffbc96"/>
            <g id="Group_16667" data-name="Group 16667" transform="translate(39.019 127.772)" opacity="0.2">
              <g id="Group_16666" data-name="Group 16666">
                <g id="Group_16665" data-name="Group 16665" clip-path="url(#clip-path-10)">
                  <path id="Path_5366" data-name="Path 5366" d="M301.48,969.165a4.134,4.134,0,0,1-.247,1.412,11.354,11.354,0,0,1-4.441-2.3,11.153,11.153,0,0,1-2.107-2.365,4.176,4.176,0,0,1,6.794,3.253" transform="translate(-294.686 -964.99)" fill="#fe5b52"/>
                </g>
              </g>
            </g>
            <path id="Path_5367" data-name="Path 5367" d="M491.066,952.718a31.03,31.03,0,0,1,3.449-.945,12.357,12.357,0,0,1,1.781-.254,5.391,5.391,0,0,1,.916.024c.152.03.3.071.456.106.145.051.286.11.43.164a14.734,14.734,0,0,1,3.013,1.964c.935.746,1.818,1.546,2.676,2.381l.039.038.008.049a.719.719,0,0,1-.09.514.613.613,0,0,1-.206.182.593.593,0,0,1-.237.083,1.96,1.96,0,0,1-.852-.084,8.451,8.451,0,0,1-1.473-.619c-.465-.248-.922-.507-1.366-.785s-.88-.567-1.32-.851l.2-.321a23.619,23.619,0,0,1,2.253,1.492,6.043,6.043,0,0,1,1.018.935,1.344,1.344,0,0,1,.2.334.613.613,0,0,1,.045.231.442.442,0,0,1-.1.259.694.694,0,0,1-.385.215,2.243,2.243,0,0,1-.365.052l-.037,0-.041-.017-4.12-1.726.123-.29a14.388,14.388,0,0,1,1.883,1.016,2.567,2.567,0,0,1,.819.763.445.445,0,0,1,.034.363.489.489,0,0,1-.245.252,1.366,1.366,0,0,1-.567.127,8,8,0,0,1-2.12-.326c-.686-.181-1.361-.395-2.027-.636l.05-.14c.666.223,1.343.42,2.026.582a7.82,7.82,0,0,0,2.057.269c.323-.013.708-.155.551-.368a2.4,2.4,0,0,0-.734-.647,14.109,14.109,0,0,0-1.853-.967l.123-.289,4.135,1.69-.078-.013a1.935,1.935,0,0,0,.3-.043.377.377,0,0,0,.194-.093c.058-.023-.02-.227-.15-.379a5.739,5.739,0,0,0-.957-.867,23.241,23.241,0,0,0-2.221-1.456l.2-.321c.436.279.86.581,1.3.846s.886.533,1.34.778a8.138,8.138,0,0,0,1.4.6,1.653,1.653,0,0,0,.686.08l.073-.013a.432.432,0,0,0,.056-.028c.044-.013.057-.047.087-.069a.383.383,0,0,0,.041-.24l.048.087c-.84-.828-1.723-1.623-2.635-2.373a14.461,14.461,0,0,0-2.919-1.958l-.4-.159c-.137-.033-.272-.071-.41-.1a5.127,5.127,0,0,0-.863-.032,12.472,12.472,0,0,0-1.75.212,30.865,30.865,0,0,0-3.445.862Z" transform="translate(-426.045 -825.522)" fill="#d28572"/>
            <path id="Path_5368" data-name="Path 5368" d="M258.638,802.059l-.119-.259,9.359-4.318-3.9-9.122.262-.112,4.007,9.377Z" transform="translate(-224.289 -683.878)" fill="#1b1b43"/>
            <rect id="Rectangle_4251" data-name="Rectangle 4251" width="0.497" height="42.762" transform="translate(35.191 158.135)" fill="#1b1b43"/>
            <path id="Path_5369" data-name="Path 5369" d="M182,1170.094H158.087a2.941,2.941,0,0,1,0-5.883H182a2.941,2.941,0,0,1,0,5.883" transform="translate(-134.604 -1010.061)" fill="#cfe9fe"/>
            <path id="Path_5370" data-name="Path 5370" d="M211.81,1506.125H191.694v-.486a4.423,4.423,0,0,1,4.423-4.423h11.27a4.423,4.423,0,0,1,4.423,4.423Z" transform="translate(-166.312 -1302.444)" fill="#cfe9fe"/>
            <rect id="Rectangle_4252" data-name="Rectangle 4252" width="0.497" height="79.432" transform="translate(63.949 136.342) rotate(-32.247)" fill="#1b1b43"/>
            <rect id="Rectangle_4253" data-name="Rectangle 4253" width="79.432" height="0.497" transform="translate(63.938 203.249) rotate(-57.734)" fill="#1b1b43"/>
            <rect id="Rectangle_4254" data-name="Rectangle 4254" width="74.264" height="5.6" transform="translate(48.218 133.465)" fill="#cfe9fe"/>
            <path id="Path_5371" data-name="Path 5371" d="M309.485,130.225A15.52,15.52,0,1,1,325,114.7a15.538,15.538,0,0,1-15.52,15.52m0-30.709A15.189,15.189,0,1,0,324.674,114.7a15.206,15.206,0,0,0-15.189-15.189" transform="translate(-255.042 -86.052)" fill="#2d5a93"/>
            <path id="Path_5372" data-name="Path 5372" d="M396.68,59.822a16.886,16.886,0,1,1-16.886-16.886A16.886,16.886,0,0,1,396.68,59.822" transform="translate(-314.855 -37.251)" fill="#cfe9fe"/>
            <path id="Path_5373" data-name="Path 5373" d="M429.145,122.239l-9.361-7.339.306-.391,9.043,7.089,5.042-4.27.321.379Z" transform="translate(-364.201 -99.347)" fill="#1b1b43"/>
            <path id="Path_5374" data-name="Path 5374" d="M86.931,445.5H78.356a2.5,2.5,0,0,0-2.5,2.5v8.575a2.5,2.5,0,0,0,2.5,2.5h6.119l2.637,3.641v-3.65a2.5,2.5,0,0,0,2.317-2.489V448a2.5,2.5,0,0,0-2.5-2.5" transform="translate(-65.814 -386.516)" fill="#fff"/>
            <path id="Path_5375" data-name="Path 5375" d="M86.193,462.143l-2.887-3.986H77.271a2.667,2.667,0,0,1-2.664-2.664v-8.575a2.667,2.667,0,0,1,2.664-2.664h8.575a2.667,2.667,0,0,1,2.664,2.664v8.575a2.672,2.672,0,0,1-2.317,2.639Zm-8.922-17.558a2.336,2.336,0,0,0-2.333,2.333v8.575a2.336,2.336,0,0,0,2.333,2.333h6.2l2.387,3.3v-3.294l.154-.011a2.339,2.339,0,0,0,2.164-2.324v-8.575a2.336,2.336,0,0,0-2.333-2.333Z" transform="translate(-64.728 -385.431)" fill="#2d5a93"/>
            <path id="Path_5376" data-name="Path 5376" d="M103.289,473.19l-3.432-4.958.817-.565,2.526,3.649,3.8-6.808.867.485Z" transform="translate(-86.635 -403.003)" fill="#2d5b87"/>
            <rect id="Rectangle_4255" data-name="Rectangle 4255" width="203.436" height="0.497" transform="translate(6.679 203.184)" fill="#1b1b43"/>
          </g>
        </g>
      </g>
    </g>
  </g>
</svg>
