<svg width="20" height="20" viewBox="0 0 20 20" fill="none" xmlns="http://www.w3.org/2000/svg">
<path fill-rule="evenodd" clip-rule="evenodd" d="M2.00173 10.0271C1.99578 8.26761 2.56997 6.55527 3.6354 5.15515C4.70083 3.75503 6.19808 2.74523 7.89532 2.28211C9.59257 1.81899 11.3951 1.92837 13.0239 2.59332C14.6527 3.25827 16.0169 4.4417 16.9053 5.96038C17.7936 7.47906 18.1566 9.24828 17.938 10.9941C17.7194 12.7399 16.9314 14.365 15.696 15.6177C14.4606 16.8704 12.8467 17.6808 11.1043 17.9235C9.3618 18.1662 7.58793 17.8277 6.0573 16.9602C5.89538 16.8224 5.70341 16.7245 5.4968 16.6744C5.29018 16.6243 5.0747 16.6233 4.86764 16.6716L3.25488 17.1513C3.16649 17.1862 3.06997 17.1951 2.9767 17.1769C2.88343 17.1587 2.79732 17.1142 2.72851 17.0487C2.6597 16.9831 2.61107 16.8993 2.58835 16.807C2.56564 16.7147 2.56979 16.6179 2.60031 16.5279L3.1354 14.7383C3.18007 14.6217 3.19807 14.4966 3.18808 14.3721C3.17809 14.2476 3.14037 14.127 3.07767 14.019C2.39386 12.7984 2.02357 11.4272 2 10.0282M8.94572 10.0282C8.94519 10.1625 8.9711 10.2955 9.02197 10.4197C9.07284 10.5439 9.14767 10.6569 9.24219 10.7521C9.33672 10.8474 9.44908 10.9231 9.57287 10.975C9.69666 11.0269 9.82945 11.0538 9.96365 11.0544C10.0979 11.0549 10.2309 11.029 10.3551 10.9781C10.4792 10.9272 10.5922 10.8524 10.6875 10.7578C10.7828 10.6633 10.8585 10.5509 10.9103 10.4271C10.9622 10.3033 10.9891 10.1705 10.9897 10.0363C10.9907 9.76524 10.8841 9.50484 10.6932 9.31241C10.5023 9.11997 10.2428 9.01126 9.97173 9.01019C9.70069 9.00912 9.44032 9.11577 9.24791 9.30669C9.05549 9.49761 8.94679 9.75716 8.94572 10.0282ZM12.6261 10.0363C12.6264 10.2383 12.6866 10.4357 12.7991 10.6035C12.9116 10.7713 13.0713 10.902 13.258 10.9791C13.4447 11.0562 13.6501 11.0761 13.8482 11.0365C14.0462 10.9969 14.2281 10.8994 14.3708 10.7565C14.5135 10.6135 14.6107 10.4314 14.65 10.2333C14.6892 10.0351 14.6689 9.82976 14.5915 9.64315C14.5141 9.45655 14.3832 9.29706 14.2152 9.18487C14.0472 9.07267 13.8498 9.01279 13.6478 9.01279C13.3767 9.01355 13.1171 9.12168 12.9256 9.31352C12.7341 9.50535 12.6264 9.76525 12.6261 10.0363ZM6.28934 11.0587C6.01873 11.0566 5.75983 10.948 5.56863 10.7565C5.37744 10.5649 5.26932 10.3058 5.26766 10.0352C5.26766 9.76408 5.37533 9.50411 5.56699 9.31243C5.75864 9.12075 6.01859 9.01308 6.28963 9.01308C6.56067 9.01308 6.82062 9.12075 7.01227 9.31243C7.20393 9.50411 7.3116 9.76408 7.3116 10.0352C7.30994 10.3058 7.20182 10.5649 7.01063 10.7565C6.81943 10.948 6.55995 11.0566 6.28934 11.0587Z" fill="#145AAD"/>
</svg>
