<svg width="20" height="20" viewBox="0 0 20 20" fill="none" xmlns="http://www.w3.org/2000/svg">
<path d="M15.657 15.6553C14.5023 16.8138 13.0152 17.5896 11.3994 17.8765C9.78356 18.1635 8.11791 17.9475 6.63044 17.2582C6.27458 17.0835 5.88928 16.9755 5.49393 16.9398C4.54472 16.9452 3.36276 17.8661 2.74874 17.2528C2.13473 16.6394 3.05605 15.456 3.05605 14.5008C3.02259 14.1077 2.91657 13.7242 2.74329 13.3692C2.05297 11.8812 1.8366 10.2193 2.1231 8.60585C2.4096 6.9924 3.18531 5.50427 4.34652 4.34045C5.08692 3.59886 5.96788 3.01022 6.93857 2.60852C7.90927 2.20682 8.95046 2 10.0021 2C11.0537 2 12.0949 2.20682 13.0656 2.60852C14.0363 3.01022 14.9172 3.59886 15.6576 4.34045C17.1584 5.84629 18.0001 7.87937 18 9.99799C17.9999 12.1166 17.1579 14.1496 15.657 15.6553Z" stroke="black" stroke-linecap="round" stroke-linejoin="round"/>
<path d="M13.1519 10.3295H13.1599" stroke="black" stroke-width="2" stroke-linecap="round" stroke-linejoin="round"/>
<path d="M9.94537 10.3295H9.95346" stroke="black" stroke-width="2" stroke-linecap="round" stroke-linejoin="round"/>
<path d="M6.73892 10.3295H6.747" stroke="black" stroke-width="2" stroke-linecap="round" stroke-linejoin="round"/>
</svg>
