<svg xmlns="http://www.w3.org/2000/svg" width="12" height="16" viewBox="0 0 12 16">
  <path id="Path_6319" data-name="Path 6319" d="M7-6.75V-5H8.75a.239.239,0,0,1,.172.078A.239.239,0,0,1,9-4.75v1.5a.239.239,0,0,1-.078.172A.239.239,0,0,1,8.75-3H7v1.75a.239.239,0,0,1-.078.172A.239.239,0,0,1,6.75-1H5.25a.239.239,0,0,1-.172-.078A.239.239,0,0,1,5-1.25V-3H3.25a.239.239,0,0,1-.172-.078A.239.239,0,0,1,3-3.25v-1.5a.239.239,0,0,1,.078-.172A.239.239,0,0,1,3.25-5H5V-6.75a.239.239,0,0,1,.078-.172A.239.239,0,0,1,5.25-7h1.5a.239.239,0,0,1,.172.078A.239.239,0,0,1,7-6.75Zm4.562-4.187A1.447,1.447,0,0,1,12-9.875V.5a1.447,1.447,0,0,1-.437,1.062A1.447,1.447,0,0,1,10.5,2h-9A1.447,1.447,0,0,1,.437,1.562,1.447,1.447,0,0,1,0,.5v-13a1.447,1.447,0,0,1,.437-1.062A1.447,1.447,0,0,1,1.5-14H7.875a1.447,1.447,0,0,1,1.062.437ZM8-12.969V-10h3a.834.834,0,0,0-.156-.219L8.219-12.844A.464.464,0,0,0,8-12.969ZM11,.5V-9H7.75a.723.723,0,0,1-.531-.219A.723.723,0,0,1,7-9.75V-13H1.5a.487.487,0,0,0-.359.141A.487.487,0,0,0,1-12.5V.5a.481.481,0,0,0,.5.5h9A.481.481,0,0,0,11,.5Z" transform="translate(0 14)" fill="#6c757d"/>
</svg>
