<svg xmlns="http://www.w3.org/2000/svg" width="11.25" height="15" viewBox="0 0 11.25 15">
  <path id="Path_6318" data-name="Path 6318" d="M11.045-10.049a.678.678,0,0,1,.205.5v.176H7.5v-3.75h.176a.678.678,0,0,1,.5.205Zm-4.482.908a.678.678,0,0,0,.205.5.678.678,0,0,0,.5.205H11.25V1.172a.678.678,0,0,1-.205.5.678.678,0,0,1-.5.205H.7a.678.678,0,0,1-.5-.205A.678.678,0,0,1,0,1.172V-12.422a.678.678,0,0,1,.205-.5.678.678,0,0,1,.5-.205H6.562ZM8.437-4.453a.224.224,0,0,0-.073-.161A.224.224,0,0,0,8.2-4.687H6.562V-6.328a.224.224,0,0,0-.073-.161.224.224,0,0,0-.161-.073H4.922a.224.224,0,0,0-.161.073.224.224,0,0,0-.073.161v1.641H3.047a.224.224,0,0,0-.161.073.224.224,0,0,0-.073.161v1.406a.224.224,0,0,0,.073.161.224.224,0,0,0,.161.073H4.687v1.641a.224.224,0,0,0,.073.161.224.224,0,0,0,.161.073H6.328a.224.224,0,0,0,.161-.073.224.224,0,0,0,.073-.161V-2.812H8.2a.224.224,0,0,0,.161-.073.224.224,0,0,0,.073-.161Z" transform="translate(0 13.125)" fill="#2c86d9"/>
</svg>
