<svg id="Component_120_1" data-name="Component 120 – 1" xmlns="http://www.w3.org/2000/svg" width="20" height="24.334" viewBox="0 0 20 24.334">
  <g id="doctor-outline">
    <path id="Path_5146" data-name="Path 5146" d="M6.944,5.03A3.242,3.242,0,0,1,10.088,1h5.269A3.242,3.242,0,0,1,18.5,5.03l-.408,1.638q-.009.034-.019.068a5.4,5.4,0,1,1-10.7,0q-.011-.034-.019-.068Zm9.462-.524-.205.818H9.246L9.04,4.506a1.081,1.081,0,0,1,1.048-1.344h5.269a1.081,1.081,0,0,1,1.048,1.344Zm-3.683,6.223a3.242,3.242,0,0,0,3.241-3.243H9.482A3.242,3.242,0,0,0,12.723,10.729Zm-2.592,5.422a5.4,5.4,0,0,0-4.971,5.387V23.7A1.08,1.08,0,1,1,3,23.7V21.538a7.565,7.565,0,0,1,7.563-7.567,1.074,1.074,0,0,1,.765.318l1.4,1.4,1.4-1.4a1.077,1.077,0,0,1,.765-.318,7.565,7.565,0,0,1,7.563,7.567V23.7a1.08,1.08,0,1,1-2.161,0V21.538a5.4,5.4,0,0,0-4.971-5.387l-1.828,1.828a1.08,1.08,0,0,1-1.528,0Zm.971,3.766a.54.54,0,0,0-.54-.54H9.482a.54.54,0,0,0-.54.54V21H7.862a.54.54,0,0,0-.54.54v1.081a.54.54,0,0,0,.54.54h1.08v1.081a.54.54,0,0,0,.54.54h1.08a.54.54,0,0,0,.54-.54V23.16h1.08a.54.54,0,0,0,.54-.54V21.538a.54.54,0,0,0-.54-.54H11.1Z" transform="translate(-2.723 -0.723)" fill="#6c757d" fill-rule="evenodd"/>
    <path id="Path_5146_-_Outline" data-name="Path 5146 - Outline" d="M10.107.75h5.284A3.5,3.5,0,0,1,18.786,5.1l-.41,1.641-.007.028a5.666,5.666,0,1,1-11.238,0L7.124,6.74,6.713,5.1A3.5,3.5,0,0,1,10.107.75ZM12.75,12.666a5.169,5.169,0,0,0,5.12-5.884l-.008-.056.017-.054q.008-.026.015-.053L18.3,4.978a3,3,0,0,0-2.912-3.731H10.107A3,3,0,0,0,7.2,4.977l.411,1.642c0,.018.009.035.015.053l.017.054-.008.056a5.169,5.169,0,0,0,5.12,5.884ZM10.107,2.917h5.284a1.333,1.333,0,0,1,1.332,1.347h.037l-.076.309-.253,1.008H9.068L8.815,4.573a1.332,1.332,0,0,1,1.292-1.656Zm6.028,1.806.067-.271a.835.835,0,0,0-.81-1.038H10.107A.835.835,0,0,0,9.3,4.452l.159.632h6.588ZM9.251,7.251h7V7.5a3.5,3.5,0,0,1-7,0Zm6.491.5H9.758a3,3,0,0,0,5.984,0Zm-5.159,6a1.321,1.321,0,0,1,.943.392l1.224,1.224,1.224-1.224a1.337,1.337,0,0,1,.942-.391h0a7.842,7.842,0,0,1,7.833,7.833v2.167a1.332,1.332,0,1,1-2.664,0V21.585a5.2,5.2,0,0,0-4.644-5.142l-1.751,1.75a1.332,1.332,0,0,1-1.883,0l-1.751-1.75a5.2,5.2,0,0,0-4.644,5.142v2.167a1.332,1.332,0,1,1-2.664,0V21.585A7.842,7.842,0,0,1,10.583,13.752ZM21.418,24.587a.836.836,0,0,0,.835-.835V21.585a7.345,7.345,0,0,0-7.336-7.336v0a.838.838,0,0,0-.59.245L12.75,16.07l-1.575-1.575a.828.828,0,0,0-.592-.246,7.345,7.345,0,0,0-7.336,7.336v2.167a.835.835,0,1,0,1.67,0V21.585a5.666,5.666,0,0,1,5.214-5.648l.114-.009,1.914,1.913a.835.835,0,0,0,1.181,0l1.914-1.913.114.009a5.666,5.666,0,0,1,5.214,5.648v2.167A.836.836,0,0,0,21.418,24.587ZM9.5,19.17h1.084a.791.791,0,0,1,.79.79V20.8h.835a.791.791,0,0,1,.79.79v1.084a.791.791,0,0,1-.79.79h-.835v.835a.791.791,0,0,1-.79.79H9.5a.791.791,0,0,1-.79-.79v-.835H7.874a.791.791,0,0,1-.79-.79V21.585a.791.791,0,0,1,.79-.79h.835V19.96A.791.791,0,0,1,9.5,19.17Zm2.709,3.792a.294.294,0,0,0,.293-.293V21.585a.294.294,0,0,0-.293-.293H10.876V19.96a.294.294,0,0,0-.293-.293H9.5a.294.294,0,0,0-.293.293v1.332H7.874a.294.294,0,0,0-.293.293v1.084a.294.294,0,0,0,.293.293H9.206v1.332a.294.294,0,0,0,.293.293h1.084a.294.294,0,0,0,.293-.293V22.962Z" transform="translate(-2.75 -0.75)" fill="#fff"/>
  </g>
</svg>
