<svg xmlns="http://www.w3.org/2000/svg" width="21.5" height="20.25" viewBox="0 0 21.5 20.25">
  <g id="Group_11446" data-name="Group 11446" transform="translate(-22.25 -36.25)">
    <g id="Home" transform="translate(23 37)">
      <path id="Path_4567" data-name="Path 4567" d="M8.125-13.75H5v-1.875A1.875,1.875,0,0,0,3.125-17.5h-6.25A1.875,1.875,0,0,0-5-15.625v1.875H-8.125A1.875,1.875,0,0,0-10-11.875V-.625A1.875,1.875,0,0,0-8.125,1.25H8.125A1.875,1.875,0,0,0,10-.625v-11.25A1.875,1.875,0,0,0,8.125-13.75ZM4.375-5.234a.625.625,0,0,1-.625.625H1.641V-2.5a.619.619,0,0,1-.59.625H-.98A.625.625,0,0,1-1.605-2.5V-4.574H-3.75A.625.625,0,0,1-4.375-5.2V-7.23a.625.625,0,0,1,.625-.625h2.074V-10a.625.625,0,0,1,.625-.625H.98A.6.6,0,0,1,1.57-10v2.109H3.75a.625.625,0,0,1,.625.625Z" transform="translate(10 17.5)" fill="none" stroke="#6c757d" stroke-width="1.5"/>
      <g id="Rectangle_5139" data-name="Rectangle 5139" transform="translate(7 2.5)" fill="#fff" stroke="#6c757d" stroke-width="1">
        <rect width="6" height="2" stroke="none"/>
        <rect x="0.5" y="0.5" width="5" height="1" fill="none"/>
      </g>
    </g>
  </g>
</svg>
