<svg xmlns="http://www.w3.org/2000/svg" width="23.999" height="21.5" viewBox="0 0 23.999 21.5">
  <path id="Path_5752" data-name="Path 5752" d="M10.945-4.363a1.559,1.559,0,0,0-2.185-.331L4.085-1.25H-.626a.6.6,0,0,1-.59-.625A.623.623,0,0,1-.626-2.5H2.43a1.328,1.328,0,0,0,1.3-1.04A1.252,1.252,0,0,0,2.5-5H-3.785a4.671,4.671,0,0,0-2.9,1.025L-8.5-2.5l-2.163-.035a.659.659,0,0,0-.59.66V1.874a.622.622,0,0,0,.59.626H2.859a4.093,4.093,0,0,0,2.41-.792l5.277-3.887A1.519,1.519,0,0,0,10.945-4.363ZM-5-10.625h2.5v2.5a.627.627,0,0,0,.625.625h2.5a.627.627,0,0,0,.625-.625v-2.5h2.5a.625.625,0,0,0,.625-.625v-2.5a.625.625,0,0,0-.625-.625H1.25v-2.5A.626.626,0,0,0,.625-17.5h-2.5a.626.626,0,0,0-.625.625v2.5H-5a.626.626,0,0,0-.625.625v2.5A.627.627,0,0,0-5-10.625Z" transform="translate(12 18.25)" fill="none" stroke="#6c757d" stroke-width="1.5"/>
</svg>
