<svg width="20" height="20" viewBox="0 0 20 20" fill="none" xmlns="http://www.w3.org/2000/svg">
<path d="M11.8811 9.64111L12.5256 10.9302H15.7189L10.3869 16.3794C10.2697 16.4966 10.1232 16.5552 9.97676 16.5552C9.83027 16.5552 9.71308 16.4966 9.62519 16.3794L4.29316 10.9302H7.04707L7.92597 8.8208L9.5959 12.5415C9.65449 12.7173 9.80097 12.8052 10.0061 12.8052C10.1818 12.8052 10.3283 12.7173 10.4455 12.5415L11.8811 9.64111ZM16.3928 4.66064C16.8615 5.12939 17.1838 5.68604 17.3596 6.33057C17.5353 6.9751 17.5353 7.61963 17.4182 8.26416C17.2717 8.90869 17.008 9.49463 16.5978 9.99268H13.1115L12.3205 8.38135C12.2033 8.20557 12.0568 8.11768 11.8811 8.11768C11.676 8.11768 11.5295 8.20557 11.4709 8.38135L10.0353 11.2524L8.33613 7.44385C8.21894 7.26807 8.07246 7.18018 7.86738 7.18018C7.6623 7.18018 7.51582 7.29736 7.45722 7.47314L6.40254 9.99268H3.41426C3.0041 9.49463 2.71113 8.90869 2.59394 8.26416C2.44746 7.61963 2.47676 6.9751 2.65254 6.33057C2.82832 5.68604 3.15058 5.12939 3.61933 4.66064L3.70722 4.57275C4.17597 4.104 4.76191 3.75244 5.43574 3.57666C6.08027 3.40088 6.7541 3.40088 7.42793 3.57666C8.10176 3.75244 8.68769 4.104 9.18574 4.57275L10.0061 5.42236L10.8264 4.57275C11.2951 4.104 11.8811 3.75244 12.5549 3.57666C13.2287 3.40088 13.9025 3.40088 14.5764 3.57666C15.2209 3.75244 15.8068 4.104 16.3049 4.57275L16.3928 4.66064Z" fill="#145AAD"/>
</svg>
