<svg width="20" height="20" viewBox="0 0 20 20" fill="none" xmlns="http://www.w3.org/2000/svg">
<path d="M12.1316 3.03703C12.8268 2.85566 13.5285 2.83356 14.2253 2.96964L14.5232 3.03703L14.5339 3.03996C15.3146 3.25287 16.0022 3.67257 16.5691 4.20597C16.5765 4.21289 16.5844 4.22032 16.5916 4.22746L16.6736 4.30949C17.2351 4.87101 17.6243 5.54441 17.8337 6.31242C18.044 7.0836 18.0378 7.83902 17.907 8.55851C17.9044 8.57282 17.9014 8.5873 17.8982 8.60148C17.7327 9.32975 17.4266 10.0252 16.9295 10.6288C16.7763 10.8147 16.5624 10.9358 16.3289 10.9765C16.305 11.1945 16.2124 11.4038 16.0525 11.5673L11.0759 16.6532L11.0681 16.6611C10.7773 16.9519 10.3884 17.118 9.97828 17.1181C9.5653 17.1181 9.19183 16.9469 8.92359 16.6415L3.95875 11.5673C3.79871 11.4037 3.70527 11.1946 3.6814 10.9765C3.44791 10.9358 3.23387 10.8147 3.08082 10.6288C2.61068 10.0579 2.26115 9.37117 2.11304 8.6005C1.9364 7.82273 1.97511 7.05469 2.1775 6.31242C2.38698 5.54433 2.7761 4.87105 3.33765 4.30949L3.41969 4.22746C3.9734 3.6738 4.67095 3.25321 5.47633 3.04093C5.47985 3.03997 5.48354 3.03798 5.48707 3.03703V3.038C6.26133 2.82881 7.06429 2.83174 7.85133 3.03703C8.66363 3.24893 9.35509 3.6701 9.92457 4.20597C9.93617 4.2169 9.94768 4.22869 9.95875 4.24015L10.0046 4.288L10.0515 4.24015L10.0642 4.22746C10.6205 3.67128 11.3216 3.24836 12.1316 3.03703ZM7.2439 10.8681H4.67359L9.65015 15.954C9.7117 16.036 9.78831 16.0879 9.88062 16.1083L9.97828 16.1181C10.0807 16.118 10.1833 16.0877 10.2742 16.0263L10.3611 15.954L15.3377 10.8681H12.3572L11.7556 9.66496L10.4158 12.372C10.3065 12.5359 10.1695 12.618 10.0056 12.6181L9.93629 12.6142C9.78109 12.5963 9.6707 12.5155 9.62281 12.372L8.06422 8.89933L7.2439 10.8681ZM14.2712 4.0048C13.6425 3.84077 13.0133 3.84082 12.3845 4.0048L12.1521 4.07414C11.6203 4.25281 11.154 4.5518 10.7712 4.93449L10.0056 5.72746L9.24 4.93449C8.83323 4.55165 8.36321 4.25283 7.83082 4.07414L7.59937 4.0048C6.97058 3.84077 6.34146 3.84083 5.74 4.0048C5.11118 4.16884 4.56419 4.49708 4.12672 4.93449L4.04469 5.01652L3.88648 5.18449C3.53366 5.58519 3.28588 6.04884 3.14234 6.57511L3.08668 6.8007C2.97341 7.32705 2.96803 7.85345 3.08765 8.3798C3.18338 8.90624 3.40424 9.391 3.71461 9.81535L3.85328 9.99308H6.64234L7.62672 7.64152C7.68143 7.47752 7.81816 7.36808 8.00953 7.36808C8.20075 7.36818 8.33772 7.45021 8.44703 7.61418L10.033 11.1689L11.3728 8.48918C11.4275 8.32518 11.5643 8.24308 11.7556 8.24308C11.9195 8.2432 12.0565 8.32523 12.1658 8.48918L12.9041 9.99308H16.158L16.2947 9.81535C16.5567 9.45149 16.7436 9.04331 16.867 8.60246L16.9236 8.3798C17.0193 7.85346 17.031 7.32704 16.9226 6.8007L16.8689 6.57511C16.7253 6.04874 16.4767 5.58525 16.1238 5.18449L15.9666 5.01652L15.8845 4.93449C15.4778 4.5517 15.0079 4.25284 14.4939 4.07414L14.2712 4.0048Z" fill="black"/>
</svg>
