<svg xmlns="http://www.w3.org/2000/svg" width="17.5" height="14" viewBox="0 0 17.5 14"><g transform="translate(-1496 -214.539)"><path d="M13.672-.875a.316.316,0,0,1,.232.1.316.316,0,0,1,.1.232V.547a.316.316,0,0,1-.1.232.316.316,0,0,1-.232.1H12.578a.316.316,0,0,1-.232-.1.316.316,0,0,1-.1-.232V-.547a.316.316,0,0,1,.1-.232.316.316,0,0,1,.232-.1Zm0-4.375a.316.316,0,0,1,.232.1.316.316,0,0,1,.1.232v1.094a.316.316,0,0,1-.1.232.316.316,0,0,1-.232.1H12.578a.316.316,0,0,1-.232-.1.316.316,0,0,1-.1-.232V-4.922a.316.316,0,0,1,.1-.232.577.577,0,0,1,.232-.1ZM9.3-.875a.316.316,0,0,1,.232.1.316.316,0,0,1,.1.232V.547a.316.316,0,0,1-.1.232.316.316,0,0,1-.232.1H8.2a.316.316,0,0,1-.232-.1.316.316,0,0,1-.1-.232V-.547a.316.316,0,0,1,.1-.232.316.316,0,0,1,.232-.1Zm0-4.375a.316.316,0,0,1,.232.1.316.316,0,0,1,.1.232v1.094a.316.316,0,0,1-.1.232.316.316,0,0,1-.232.1H8.2a.316.316,0,0,1-.232-.1.316.316,0,0,1-.1-.232V-4.922a.316.316,0,0,1,.1-.232.316.316,0,0,1,.232-.1ZM4.922-.875a.316.316,0,0,1,.232.1.316.316,0,0,1,.1.232V.547a.316.316,0,0,1-.1.232.316.316,0,0,1-.232.1H3.828A.316.316,0,0,1,3.6.779.316.316,0,0,1,3.5.547V-.547a.316.316,0,0,1,.1-.232.316.316,0,0,1,.232-.1Zm0-4.375a.316.316,0,0,1,.232.1.316.316,0,0,1,.1.232v1.094a.316.316,0,0,1-.1.232.316.316,0,0,1-.232.1H3.828A.316.316,0,0,1,3.6-3.6a.316.316,0,0,1-.1-.232V-4.922a.316.316,0,0,1,.1-.232.316.316,0,0,1,.232-.1ZM9.9-9.187a.158.158,0,0,1,.109.055.158.158,0,0,1,.055.109v.547a.158.158,0,0,1-.055.109.158.158,0,0,1-.109.055H9.187V-7.6a.158.158,0,0,1-.055.109.158.158,0,0,1-.109.055H8.477a.158.158,0,0,1-.109-.055A.158.158,0,0,1,8.312-7.6v-.711H7.6a.158.158,0,0,1-.109-.055.158.158,0,0,1-.055-.109v-.547a.158.158,0,0,1,.055-.109A.158.158,0,0,1,7.6-9.187h.711V-9.9a.158.158,0,0,1,.055-.109.158.158,0,0,1,.109-.055h.547a.158.158,0,0,1,.109.055.158.158,0,0,1,.055.109v.711Zm6.07-.437a1.474,1.474,0,0,1,1.08.451,1.474,1.474,0,0,1,.451,1.08V1.531a.235.235,0,0,1-.219.219h-.875a.235.235,0,0,1-.219-.219V-8.094a.209.209,0,0,0-.068-.15.209.209,0,0,0-.15-.068H11.375v-2.461a.167.167,0,0,0-.041-.123.167.167,0,0,0-.123-.041H6.289a.167.167,0,0,0-.123.041.167.167,0,0,0-.041.123v2.461H1.531a.209.209,0,0,0-.15.068.209.209,0,0,0-.068.15V1.531a.209.209,0,0,1-.068.15.209.209,0,0,1-.15.068H.219a.209.209,0,0,1-.15-.068A.209.209,0,0,1,0,1.531V-8.094a1.474,1.474,0,0,1,.451-1.08,1.474,1.474,0,0,1,1.08-.451H4.812v-1.148a1.419,1.419,0,0,1,.437-1.039,1.419,1.419,0,0,1,1.039-.437h4.922a1.419,1.419,0,0,1,1.039.437,1.419,1.419,0,0,1,.437,1.039v1.148Z" transform="translate(1496 226.789)" fill="#1f1f1f"/></g></svg>