<svg xmlns="http://www.w3.org/2000/svg" width="23.506" height="20.761" viewBox="0 0 23.506 20.761">
  <path id="Path_5754" data-name="Path 5754" d="M2.75-8.766,3.7-6.875H8.379L.559,1.117a.8.8,0,0,1-.58.258.671.671,0,0,1-.537-.258l-7.82-7.992H-4.34l1.289-3.094L-.6-4.512a.608.608,0,0,0,.6.387.694.694,0,0,0,.645-.387Zm6.617-7.3a5.428,5.428,0,0,1,1.418,2.428,5.932,5.932,0,0,1,.086,2.836,5.942,5.942,0,0,1-1.2,2.557H4.555l-1.16-2.363A.694.694,0,0,0,2.75-11a.608.608,0,0,0-.6.387L.043-6.4l-2.492-5.586a.711.711,0,0,0-.666-.387.623.623,0,0,0-.623.43l-1.547,3.7H-9.668a5.942,5.942,0,0,1-1.2-2.557,5.932,5.932,0,0,1,.086-2.836A5.428,5.428,0,0,1-9.367-16.07l.129-.129A5.7,5.7,0,0,1-6.7-17.682a5.408,5.408,0,0,1,2.943,0A5.69,5.69,0,0,1-1.2-16.2L0-14.953,1.2-16.2A5.69,5.69,0,0,1,3.76-17.682a5.408,5.408,0,0,1,2.943,0A5.7,5.7,0,0,1,9.238-16.2Z" transform="translate(11.753 18.636)" fill="none" stroke="#6c757d" stroke-width="1.5"/>
</svg>
