<svg xmlns="http://www.w3.org/2000/svg" width="21.313" height="21.656" viewBox="0 0 21.313 21.656">
  <path id="Path_6285" data-name="Path 6285" d="M16.715-17.273a10.69,10.69,0,0,1,3.609,3.846A10.443,10.443,0,0,1,21.656-8.25a10.33,10.33,0,0,1-1.439,5.328A10.821,10.821,0,0,1,16.35.967a10.256,10.256,0,0,1-5.328,1.439A10.369,10.369,0,0,1,5.672.967,10.821,10.821,0,0,1,1.783-2.9,10.177,10.177,0,0,1,.344-8.186a10.568,10.568,0,0,1,1.332-5.242,10.69,10.69,0,0,1,3.609-3.846.743.743,0,0,1,.43-.043.4.4,0,0,1,.3.215l.172.3a.477.477,0,0,1,.064.408.461.461,0,0,1-.236.279A9.454,9.454,0,0,0,2.879-12.74a9.083,9.083,0,0,0-1.16,4.49A9.057,9.057,0,0,0,2.965-3.588,9.239,9.239,0,0,0,6.359-.215a9.132,9.132,0,0,0,4.662,1.246A9.017,9.017,0,0,0,15.662-.215a9.239,9.239,0,0,0,3.373-3.395,9.053,9.053,0,0,0,1.246-4.619,9.088,9.088,0,0,0-1.16-4.533,9.149,9.149,0,0,0-3.137-3.309.656.656,0,0,1-.236-.322.378.378,0,0,1,.064-.365l.172-.3a.393.393,0,0,1,.3-.258A.743.743,0,0,1,16.715-17.273ZM11.687-7.391a.5.5,0,0,1-.15.365.5.5,0,0,1-.365.15h-.344a.5.5,0,0,1-.365-.15.5.5,0,0,1-.15-.365V-18.734a.5.5,0,0,1,.15-.365.5.5,0,0,1,.365-.15h.344a.5.5,0,0,1,.365.15.5.5,0,0,1,.15.365Z" transform="translate(-0.344 19.25)" fill="#1f1f1f"/>
</svg>
