<svg id="Group_15637" data-name="Group 15637" xmlns="http://www.w3.org/2000/svg" width="44.891" height="42.332" viewBox="0 0 44.891 42.332">
  <g id="Group_15636" data-name="Group 15636" transform="translate(40.641 39.367) rotate(172)">
    <path id="Subtraction_7" data-name="Subtraction 7" d="M2.8,15.384H.955A10.919,10.919,0,0,1,10.695,0h.044c.5,0,.788.188.878.576l.012.092a.881.881,0,0,1-.514.868,3.75,3.75,0,0,1-1.061.313l-.141.027-.052.01A10.3,10.3,0,0,0,7.8,2.439,9.326,9.326,0,0,0,5.671,3.617,6.877,6.877,0,0,0,3.754,5.727c.277-.154.541-.33.8-.5.095-.063.192-.129.291-.193a5.7,5.7,0,0,1,1.937-.778L6.9,4.244a1.11,1.11,0,0,1,1.04.563,1.125,1.125,0,0,1-.257,1.158A8.293,8.293,0,0,1,5.744,7.381l-.6.338A7.188,7.188,0,0,0,3.251,9.186a5.538,5.538,0,0,0-.965,4.75A11.153,11.153,0,0,0,2.8,15.383Z" transform="translate(11.63 15.384) rotate(180)" fill="#116ad4"/>
    <ellipse id="Ellipse_802" data-name="Ellipse 802" cx="1.173" cy="1.173" rx="1.173" ry="1.173" transform="translate(3.021 11.724) rotate(172)" fill="#116ad4"/>
  </g>
  <g id="Group_15635" data-name="Group 15635" transform="translate(0 0)">
    <path id="Subtraction_6" data-name="Subtraction 6" d="M19.825,39.648a4.576,4.576,0,0,1-4.576-4.573V24.4H4.576a4.574,4.574,0,1,1,0-9.149H15.249V4.576a4.574,4.574,0,1,1,9.149,0V15.249H35.072a4.574,4.574,0,0,1,4,2.354,7.935,7.935,0,0,0-2.287-.344,6.534,6.534,0,0,0-4.725,1.92l-1.153,1.153-1.154-1.154a6.534,6.534,0,0,0-4.725-1.92,8.6,8.6,0,0,0-6,2.578c-3.378,3.381-3.509,8.471-.32,12.378.474.582,3.639,3.911,4.978,5.316a4.568,4.568,0,0,1-3.858,2.118Z" fill="#116ad4"/>
    <g id="Group_15634" data-name="Group 15634" transform="translate(17.72 18.837)">
      <g id="heart" transform="translate(0 0)">
        <g id="Layer_2" data-name="Layer 2" transform="translate(0 0)">
          <g id="Group_15631" data-name="Group 15631">
            <path id="Path_5056" data-name="Path 5056" d="M14.461,25.638c-2.02,0-9.881-8.58-10.991-9.941C.482,12.035.507,7.713,3.532,4.687a6.977,6.977,0,0,1,9.868,0l1.062,1.062,1.06-1.06a6.977,6.977,0,0,1,9.868,0c3.025,3.025,3.051,7.346.063,11.009C24.342,17.059,16.481,25.638,14.461,25.638Zm-6-21.151a5.1,5.1,0,0,0-3.63,1.5C3,7.829,2.047,11.038,4.9,14.532c2.351,2.882,8.162,8.574,9.564,9.231,1.4-.657,7.213-6.349,9.563-9.231,2.851-3.494,1.9-6.7.063-8.54a5.135,5.135,0,0,0-7.262,0L15.112,7.7a.922.922,0,0,1-1.3,0L12.1,5.989a5.1,5.1,0,0,0-3.631-1.5Z" transform="translate(-1.246 -2.643)" fill="#116ad4" stroke="#116ad4" stroke-width="1"/>
            <path id="Path_5057" data-name="Path 5057" d="M13.739,9.161a1.016,1.016,0,0,1-.758-.338L11.507,7.172a1.016,1.016,0,0,1,1.516-1.353L14.5,7.469a1.015,1.015,0,0,1-.758,1.691Z" transform="translate(0.721 -1.994)" fill="#116ad4"/>
          </g>
        </g>
      </g>
    </g>
  </g>
</svg>
