<svg id="h-v-active" xmlns="http://www.w3.org/2000/svg" width="24" height="22.832" viewBox="0 0 24 22.832">
  <path id="Path_5158" data-name="Path 5158" d="M87.088,13.957v-1.5h-11v1.51h-3.05v5.7a6.26,6.26,0,0,1,4.05,5.85c0,1.412-.932,3.726-2.849,7.076q-.39.68-.795,1.351h7.444v-4.6h1.5v4.6h7.7V13.968Zm-6.35,13.825h-2.85v-1.5h2.85Zm0-3h-2.85v-1.5h2.85Zm0-2.931h-2.85v-1.5h2.85Zm0-3h-2.85v-1.5h2.85Zm4.65,8.931h-2.85v-1.5h2.85Zm0-3h-2.85v-1.5h2.85Zm0-2.931h-2.85v-1.5h2.85Zm0-3h-2.85v-1.5h2.85Zm-14.55,5.165a1.5,1.5,0,1,0,1.5,1.5A1.5,1.5,0,0,0,70.838,24.017Z" transform="translate(-66.088 -12.455)" fill="#2c86d9"/>
  <path id="Path_5159" data-name="Path 5159" d="M4.75,189.764A4.756,4.756,0,0,0,0,194.514c0,2.03,3.013,7.095,4.75,9.771,1.737-2.677,4.75-7.742,4.75-9.771A4.756,4.756,0,0,0,4.75,189.764Zm0,7.75a3,3,0,1,1,3-3A3,3,0,0,1,4.75,197.514Z" transform="translate(0 -181.453)" fill="#2c86d9"/>
</svg>
