<svg id="Component_125_3" data-name="Component 125 – 3" xmlns="http://www.w3.org/2000/svg" width="25" height="25.023" viewBox="0 0 25 25.023">
  <g id="hospital-visit">
    <path id="Path_5160" data-name="Path 5160" d="M68.377,103.294a2.941,2.941,0,1,0,2.941,2.941A2.944,2.944,0,0,0,68.377,103.294Zm0,4.412a1.471,1.471,0,1,1,1.471-1.471A1.472,1.472,0,0,1,68.377,107.705Zm6.913-3.661H78.23v1.471H75.29Zm4.411,0h2.941v1.471H79.7Zm-4.411,2.941H78.23v1.471H75.29Zm4.411,0h2.941v1.471H79.7ZM75.29,98.23H78.23V99.7H75.29Zm4.411,0h2.941V99.7H79.7Zm-4.411,2.941H78.23v1.471H75.29Zm4.411,0h2.941v1.471H79.7Z" transform="translate(-62.25 -93.429)" fill="#6c757d"/>
    <path id="Path_5161" data-name="Path 5161" d="M22.3,1.473V0H11.513V1.481H8.523V7.07A6.127,6.127,0,0,0,.238,12.806c0,1.384.914,3.653,2.793,6.937,1.347,2.353,2.713,4.366,2.726,4.386l.608.894.608-.894c.011-.016.9-1.325,1.947-3.062H25.238V1.483h0ZM6.366,22.385c-1.7-2.624-4.657-7.59-4.657-9.579a4.657,4.657,0,0,1,9.314,0C11.023,14.795,8.069,19.761,6.366,22.385Zm17.4-2.788H17.69V16.557h-1.47V19.6H9.783c1.823-3.2,2.71-5.428,2.71-6.791a6.123,6.123,0,0,0-2.5-4.935V2.951h2.99V1.471h7.843V2.939l2.941.01Z" transform="translate(-0.238)" fill="#6c757d"/>
  </g>
</svg>
