<svg xmlns="http://www.w3.org/2000/svg" width="12.25" height="14" viewBox="0 0 12.25 14">
  <path id="Path_5755" data-name="Path 5755" d="M12.25-.875a2.531,2.531,0,0,0-.766-1.859A2.5,2.5,0,0,0,9.652-3.5a2.6,2.6,0,0,0-1.832.711L5.141-4.457a2.617,2.617,0,0,0,0-1.586L7.82-7.711A2.6,2.6,0,0,0,9.652-7a2.5,2.5,0,0,0,1.832-.766,2.531,2.531,0,0,0,.766-1.859,2.531,2.531,0,0,0-.766-1.859,2.531,2.531,0,0,0-1.859-.766,2.531,2.531,0,0,0-1.859.766A2.531,2.531,0,0,0,7-9.625a2.872,2.872,0,0,0,.109.793L4.43-7.164A2.6,2.6,0,0,0,2.6-7.875a2.5,2.5,0,0,0-1.832.766A2.531,2.531,0,0,0,0-5.25,2.531,2.531,0,0,0,.766-3.391,2.5,2.5,0,0,0,2.6-2.625,2.6,2.6,0,0,0,4.43-3.336l2.68,1.668A2.872,2.872,0,0,0,7-.875,2.531,2.531,0,0,0,7.766.984a2.531,2.531,0,0,0,1.859.766A2.531,2.531,0,0,0,11.484.984,2.531,2.531,0,0,0,12.25-.875ZM9.625-10.937a1.266,1.266,0,0,1,.93.383,1.266,1.266,0,0,1,.383.93,1.266,1.266,0,0,1-.383.93,1.266,1.266,0,0,1-.93.383A1.266,1.266,0,0,1,8.7-8.7a1.266,1.266,0,0,1-.383-.93,1.266,1.266,0,0,1,.383-.93A1.266,1.266,0,0,1,9.625-10.937Zm-7,4.375a1.266,1.266,0,0,1,.93.383,1.266,1.266,0,0,1,.383.93,1.266,1.266,0,0,1-.383.93,1.266,1.266,0,0,1-.93.383A1.266,1.266,0,0,1,1.7-4.32a1.266,1.266,0,0,1-.383-.93A1.266,1.266,0,0,1,1.7-6.18,1.266,1.266,0,0,1,2.625-6.562Zm7,4.375a1.266,1.266,0,0,1,.93.383,1.266,1.266,0,0,1,.383.93,1.266,1.266,0,0,1-.383.93,1.266,1.266,0,0,1-.93.383A1.266,1.266,0,0,1,8.7.055a1.266,1.266,0,0,1-.383-.93A1.266,1.266,0,0,1,8.7-1.8,1.266,1.266,0,0,1,9.625-2.187Z" transform="translate(0 12.25)" fill="#fff"/>
</svg>
