<svg xmlns="http://www.w3.org/2000/svg" width="74.725" height="70.828" viewBox="0 0 74.725 70.828">
  <g id="Group_15637" data-name="Group 15637" transform="translate(-4.732 -4.351)">
    <g id="Group_15636" data-name="Group 15636" transform="translate(73.057 70.535) rotate(172)">
      <path id="Subtraction_7" data-name="Subtraction 7" d="M4.7,25.863h-3.1A18.358,18.358,0,0,1,17.98,0h.074c.842,0,1.325.317,1.476.968l.02.154a1.481,1.481,0,0,1-.864,1.46,6.3,6.3,0,0,1-1.784.526l-.237.046-.087.017a17.323,17.323,0,0,0-3.471.929,15.679,15.679,0,0,0-3.574,1.98A11.562,11.562,0,0,0,6.312,9.629c.465-.259.909-.556,1.338-.843.159-.107.324-.217.488-.325a9.585,9.585,0,0,1,3.256-1.309l.2-.018a1.867,1.867,0,0,1,1.748.946,1.891,1.891,0,0,1-.432,1.947,13.942,13.942,0,0,1-3.252,2.381l-1.012.568a12.084,12.084,0,0,0-3.18,2.466,9.311,9.311,0,0,0-1.622,7.986A18.751,18.751,0,0,0,4.7,25.862Z" transform="translate(19.552 25.863) rotate(180)" fill="none"/>
      <ellipse id="Ellipse_802" data-name="Ellipse 802" cx="1.971" cy="1.971" rx="1.971" ry="1.971" transform="translate(5.079 19.711) rotate(172)" fill="none"/>
    </g>
    <g id="Group_15635" data-name="Group 15635" transform="translate(0 0)">
      <path id="Subtraction_6" data-name="Subtraction 6" d="M33.331,66.655a7.693,7.693,0,0,1-7.693-7.688V41.018H7.693a7.691,7.691,0,1,1,0-15.381H25.637V7.693a7.69,7.69,0,1,1,15.381,0V25.637H58.963A7.691,7.691,0,0,1,65.69,29.6a13.341,13.341,0,0,0-3.846-.579A10.985,10.985,0,0,0,53.9,32.244l-1.938,1.938-1.94-1.94a10.985,10.985,0,0,0-7.944-3.227,14.46,14.46,0,0,0-10.091,4.334c-5.678,5.683-5.9,14.241-.539,20.81.8.978,6.118,6.576,8.369,8.937a7.68,7.68,0,0,1-6.487,3.561Z" transform="translate(4.732 4.351)" fill="none"/>
      <g id="Group_15634" data-name="Group 15634" transform="translate(34.523 36.019)">
        <g id="heart" transform="translate(0 0)">
          <g id="Layer_2" data-name="Layer 2" transform="translate(0 0)">
            <g id="Group_15631" data-name="Group 15631">
              <path id="Path_5056" data-name="Path 5056" d="M23.463,41.3c-3.4,0-16.612-14.424-18.478-16.713C-.039,18.433,0,11.167,5.089,6.079a11.73,11.73,0,0,1,16.589,0l1.785,1.785,1.783-1.783a11.73,11.73,0,0,1,16.589,0c5.086,5.086,5.13,12.35.105,18.509C40.075,26.879,26.859,41.3,23.463,41.3ZM13.383,5.744a8.574,8.574,0,0,0-6.1,2.527c-3.091,3.091-4.688,8.487.1,14.36,3.952,4.845,13.722,14.414,16.079,15.519C25.822,37.045,35.59,27.476,39.54,22.631c4.793-5.873,3.2-11.27.105-14.358a8.634,8.634,0,0,0-12.21,0l-2.878,2.876a1.549,1.549,0,0,1-2.19,0l-2.88-2.88a8.578,8.578,0,0,0-6.1-2.527Z" transform="translate(-1.246 -2.643)" fill="none" stroke="none" stroke-width="1"/>
              <path id="Path_5057" data-name="Path 5057" d="M15.435,11.669a1.708,1.708,0,0,1-1.274-.569L11.683,8.325A1.708,1.708,0,0,1,14.231,6.05l2.475,2.775a1.706,1.706,0,0,1-1.274,2.844Z" transform="translate(8.876 0.38)" fill="none"/>
            </g>
          </g>
        </g>
      </g>
    </g>
  </g>
</svg>
